<?xml version="1.0" encoding="UTF-8" standalone="no"?>
<svg width="225px" height="67px" viewBox="0 0 225 67" version="1.1" xmlns="http://www.w3.org/2000/svg" xmlns:xlink="http://www.w3.org/1999/xlink">
    <!-- Generator: Sketch 39.1 (31720) - http://www.bohemiancoding.com/sketch -->
    <title>60</title>
    <desc>Created with Sketch.</desc>
    <defs></defs>
    <g id="Page-1" stroke="none" stroke-width="1" fill="none" fill-rule="evenodd">
        <g id="60" fill="#BBBDBF">
            <path d="M108.7,44.9 L108.3,42.4 L107.5,40 L106.4,37.8 L105,35.8 L103.4,34 L101.7,32.4 L99.8,31 L97.9,29.8 L94.1,27.8 L90.1,26.3 L86,25.2 L81.8,24.5 L77.7,24.2 L73.6,24 L57.3,23.8 L41.1,24 L37.4,24.3 L33.7,25.1 L30.1,26.3 L29.1,26.7 L28.1,26.7 L27.7,26.6 L27.3,26.4 L26.9,26.1 L26.6,25.7 L26.4,25.1 L26.4,24.5 L26.5,23.8 L26.8,23.1 L27.9,20.7 L29.3,18.5 L31,16.5 L33,14.8 L35.3,13.5 L37.8,12.6 L40.4,12.1 L43,12 L71.5,12 L100,12.2 L101.1,12 L102.1,11.4 L102.8,10.5 L103,10 L103.1,9.4 L103.8,3.4 L103.8,2.9 L103.6,2.2 L103.3,1.6 L102.9,1.2 L102.4,0.9 L101.9,0.7 L101.1,0.5 L72.3,0.3 L43.4,0.3 L38.8,0.4 L34.1,0.9 L29.4,2 L25,3.7 L21.6,5.4 L18.4,7.4 L15.4,9.7 L12.6,12.2 L10,15 L7.7,18 L5.8,21 L4.1,24.2 L2.7,27.5 L1.6,30.9 L0.8,34.4 L0.4,38 L0.3,41.6 L0.6,45.2 L1.4,48.8 L2.3,51.4 L3.5,53.9 L5,56.2 L6.9,58.3 L8.6,59.8 L10.5,61.1 L13.5,62.6 L16.6,63.7 L19.8,64.6 L23,65.2 L28.6,65.9 L34.2,66.2 L39.7,66.3 L56.2,66.5 L72.7,66.4 L76.9,66.3 L81.1,66 L85.3,65.4 L88.4,64.7 L91.5,63.8 L94.5,62.6 L97.5,61.2 L99.6,59.9 L101.6,58.4 L103.5,56.8 L105.2,54.9 L106.7,52.7 L107.9,50.3 L108.6,47.6 L108.7,44.9 L108.7,44.9 L108.7,44.9 Z M39.7,58.3 L36.6,58.1 L33.7,57.5 L30.9,56.5 L28.3,55 L27.1,54.1 L26,53.1 L25.1,51.9 L24.3,50.6 L23.7,49.2 L23.3,47.8 L23.1,46.3 L23.1,44.8 L23.3,43.3 L23.7,41.9 L24.3,40.5 L25,39.2 L25.9,38 L26.9,36.9 L29.2,35.1 L31.9,33.8 L34.7,32.9 L37.6,32.4 L40.6,32.2 L63.3,32.2 L68.1,32.4 L73,33.1 L75.4,33.7 L77.7,34.5 L79.9,35.5 L82.1,36.9 L83.8,38.4 L85.3,40.3 L86.3,42.5 L86.7,44.9 L86.7,46.3 L86.4,47.6 L86,48.9 L85.4,50.1 L84.6,51.2 L83.7,52.3 L81.8,54.1 L79.4,55.4 L77.1,56.4 L74.7,57.1 L72.3,57.6 L67.3,58.2 L62.4,58.4 L39.7,58.3 L39.7,58.3 L39.7,58.3 Z M40.7,32 L40.6,32.1 L40.7,32 L40.7,31.7 L40.7,32 L40.7,32 L40.7,32 Z M225.3,24.3 L225,21.2 L224.3,18.1 L223.2,15.1 L222.2,13.2 L221,11.3 L219.6,9.6 L218,8 L215.7,6.2 L213.2,4.7 L210.6,3.5 L206.2,2 L201.7,1.1 L197.3,0.6 L192.9,0.4 L188.6,0.3 L175.6,0.2 L162.6,0.3 L158,0.4 L153.4,0.7 L148.8,1.3 L144.2,2.3 L139.7,3.7 L136.9,4.9 L134.1,6.4 L131.5,8.2 L129.2,10.3 L127.1,12.7 L125.3,15.3 L123.9,18.2 L122.8,21.1 L122,24.1 L121.3,28.6 L121,33.1 L120.9,35 L120.7,39.2 L120.8,43.6 L121.2,46.6 L121.9,49.5 L123,52.3 L124.1,54.3 L125.4,56.2 L126.9,57.9 L128.6,59.5 L131.1,61.3 L133.7,62.7 L136.4,63.9 L140.8,65.2 L145.3,66.1 L149.8,66.7 L154.3,67 L158.8,67.1 L171.8,67.2 L184.9,67.1 L189.3,67 L193.8,66.8 L198.3,66.3 L202.8,65.4 L207.2,64 L209.8,62.9 L212.3,61.5 L214.7,59.9 L216.4,58.5 L217.9,56.9 L219.3,55.2 L220.5,53.4 L221.9,50.5 L223,47.5 L223.7,44.4 L224.3,39.8 L224.6,35.3 L224.7,33.4 L224.9,29 L225.3,24.3 L225.3,24.3 L225.3,24.3 Z M181.5,59.6 L172.1,59.7 L162.8,59.6 L162.6,59.6 L160,59.5 L157.3,59.3 L154.6,58.9 L152.6,58.4 L150.7,57.7 L148.9,56.7 L147.4,55.6 L147.2,55.5 L145.9,54.2 L144.8,52.7 L143.9,51 L143.2,49.3 L142.5,46.9 L142.1,44.4 L141.9,42 L141.9,41.8 L141.8,36.8 L142.1,31.7 L142.7,26.9 L142.7,26.5 L143.5,22.9 L144.8,19.3 L145.6,17.6 L146.6,16 L147.7,14.5 L149,13.2 L149.2,13 L150.8,11.8 L152.6,10.7 L154.6,9.8 L156.7,9.2 L159.5,8.7 L162.4,8.5 L165.2,8.4 L165.4,8.4 L174.8,8.3 L184.3,8.4 L184.5,8.4 L187.1,8.5 L189.8,8.7 L192.6,9.2 L194.6,9.8 L196.5,10.7 L198.2,11.8 L199.7,13.2 L199.9,13.4 L200.9,14.7 L201.8,16.3 L202.5,18 L203,19.7 L203.6,23.2 L203.8,26.7 L203.8,31.9 L203.5,37 L202.9,42 L202.9,42.2 L202.3,45.6 L201.3,49 L200.6,50.7 L199.7,52.3 L198.6,53.8 L197.5,55.1 L197.3,55.3 L195.7,56.6 L193.9,57.7 L191.9,58.6 L189.8,59.2 L187,59.7 L184.2,59.9 L181.5,60 L181.5,59.6 L181.5,59.6 L181.5,59.6 Z" id="Shape"></path>
        </g>
    </g>
</svg>