<?xml version="1.0" encoding="UTF-8" standalone="no"?>
<svg width="163px" height="30px" viewBox="0 0 163 30" version="1.1" xmlns="http://www.w3.org/2000/svg" xmlns:xlink="http://www.w3.org/1999/xlink">
    <!-- Generator: Sketch 39.1 (31720) - http://www.bohemiancoding.com/sketch -->
    <title>60d</title>
    <desc>Created with Sketch.</desc>
    <defs></defs>
    <g id="Page-1" stroke="none" stroke-width="1" fill="none" fill-rule="evenodd">
        <g id="60d">
            <path d="M29.1,12 L17.4,12 C17.4,12 14.6,11.9 11.9,12.9 C11.9,12.9 11.2,13.4 10.6,12.8 C10,12.2 10.7,11.2 10.7,11.2 C10.7,11.2 12.4,7 17.7,7 L41,7 C41,7 42.6,7.1 42.7,5.7 C42.8,4.3 43,3.4 43,3.4 C43,3.4 43.1,2.1 41.4,2.1 L17.6,2.1 C17.6,2.1 7.3,0.6 1.1,12 C1.1,12 -2.9,19.6 1.8,26 C1.8,26 4.4,29.8 13.7,29.8 L29.5,29.8 C29.5,29.8 45.1,29.9 45.1,21.2 C45.1,12.5 32.1,12 29.1,12 L29.1,12 L29.1,12 Z M22.9,26.5 C17.2,26.5 9.2,27.1 9.2,21.5 C9.2,15.1 17,15.4 17,15.4 L24.7,15.4 C27.9,15.4 36,15.5 36,21 C36,26.5 28.5,26.5 22.9,26.5 L22.9,26.5 L22.9,26.5 Z" id="Shape" fill="#BBBDBF"></path>
            <path d="M80.5,2.1 L68.2,2.1 C68.2,2.1 52.3,1.1 50.8,12.2 L50.2,18 C50.2,18 49.4,25.3 55.5,28.2 C55.5,28.2 58.8,30.1 65.4,30.1 L79.3,30.1 C79.3,30.1 93.1,30.4 93.8,19.5 L94.2,12.6 C94.2,12.5 94.5,2.1 80.5,2.1 L80.5,2.1 L80.5,2.1 Z M84.7,19.8 C84.1,27.3 76.1,26.9 76.1,26.9 C76.1,26.9 74.3,27.1 65.9,26.8 C57.7,26.5 59,16.7 59,16.7 L59.3,13.7 C60.1,4.7 68,5.4 68,5.4 C68,5.4 67.2,5.3 76.9,5.3 C86.6,5.3 85.4,12.2 84.7,19.8 L84.7,19.8 L84.7,19.8 Z" id="Shape" fill="#BBBDBF"></path>
            <path d="M131.5,29.2 L130.7,29.2 L102.5,29.2 L102.5,25.4 L103.1,25.4 C104.9,25.4 106.2,24.9 107.1,24 C108.2,22.8 108.2,21.2 108.2,21.2 L108.2,10.4 L119.7,10.4 L119.7,21.6 C119.7,24.5 121.8,24.9 121.9,24.9 C123.9,25.1 126.1,25.2 128.3,25.2 C134.6,25.2 149.4,24.2 149.4,14.5 C149.4,5.4 129.8,4.7 123.7,4.7 L121.8,4.7 L104.3,4.7 L104.3,0.7 L121.7,0.7 L122.7,0.7 L126.6,0.7 C139.8,0.7 161.9,2.5 161.9,14.5 C161.7,28.5 136.5,29.2 131.5,29.2 L131.5,29.2 L131.5,29.2 Z" id="Shape" fill="#231F20"></path>
            <path d="M126.4,1.3 C137.2,1.3 161.1,2.4 161.1,14.5 C161.1,28 136.1,28.6 131.4,28.6 L130.6,28.6 L102.9,28.6 L102.9,26 C108.8,26 108.5,21.2 108.5,21.2 L108.5,11 L119,11 L119,21.6 C119,25 121.7,25.5 121.7,25.5 C123.6,25.7 125.8,25.8 128.2,25.8 C137.8,25.8 149.9,23.7 149.9,14.5 C149.9,4.9 130.1,4.1 123.7,4.1 L121.7,4.1 L104.8,4.1 L104.8,1.3 L121.6,1.3 L126.4,1.3 L126.4,1.3 L126.4,1.3 Z M126.4,0.1 L122.5,0.1 L121.5,0.1 L104.7,0.1 L103.5,0.1 L103.5,1.3 L103.5,4.2 L103.5,5.4 L104.7,5.4 L121.6,5.4 L123.6,5.4 C127.8,5.4 148.7,5.8 148.7,14.6 C148.7,23.8 134.4,24.8 128.2,24.8 C125.5,24.8 123.3,24.6 121.9,24.5 C121.6,24.4 120.2,24 120.2,21.7 L120.2,11 L120.2,9.8 L119,9.8 L108.7,9.8 L107.5,9.8 L107.5,11 L107.5,21.2 L107.5,21.2 L107.5,21.2 C107.5,21.2 107.5,22.6 106.6,23.6 C105.9,24.4 104.7,24.8 103.1,24.8 L101.9,24.8 L101.9,26 L101.9,28.7 L101.9,29.9 L103.1,29.9 L130.8,29.9 L131.6,29.9 C136.7,29.9 162.4,29.2 162.4,14.6 C162.3,7.9 156.1,0.1 126.4,0.1 L126.4,0.1 L126.4,0.1 L126.4,0.1 Z" id="Shape" fill="#D0D2D3"></path>
        </g>
    </g>
</svg>