<?xml version="1.0" encoding="UTF-8" standalone="no"?>
<svg width="483px" height="149px" viewBox="0 0 483 149" version="1.1" xmlns="http://www.w3.org/2000/svg" xmlns:xlink="http://www.w3.org/1999/xlink">
    <!-- Generator: Sketch 39.1 (31720) - http://www.bohemiancoding.com/sketch -->
    <title>75</title>
    <desc>Created with Sketch.</desc>
    <defs></defs>
    <g id="Page-1" stroke="none" stroke-width="1" fill="none" fill-rule="evenodd">
        <g id="75" fill="#BBBDBF">
            <path d="M219.4,5.5 L219.3,5 L219.2,4.5 L219,4 L218.8,3.6 L218.5,3.2 L218.2,2.8 L218,2.3 L217.6,2 L217.2,1.7 L216.8,1.4 L216.4,1.2 L215.9,1 L215.4,0.9 L214.9,0.8 L4.5,0.8 L4,0.9 L3.5,1.1 L3,1.2 L2.6,1.4 L2.2,1.7 L1.8,2 L1.4,2.3 L1.1,2.7 L0.8,3.1 L0.6,3.6 L0.4,4 L0.2,4.5 L0.1,5 L0,5.5 L0,6.1 C0.1,10.5 0.1,15 0.2,19.4 L0.2,19.9 L0.3,20.4 L0.4,20.9 L0.6,21.4 L0.8,21.9 L1.1,22.3 L1.4,22.7 L1.7,23.1 L2.1,23.4 L2.5,23.7 L2.9,24 L3.3,24.2 L3.8,24.4 L4.3,24.5 L4.8,24.6 L5.3,24.6 C26.3,24.6 120.2,24.7 139.1,24.7 L162.3,24.7 C164.3,24.9 165,27.7 163.2,28.8 C134.2,46.5 56.4,93.7 48.7,143.2 C48.3,146 49.6,148.7 52.3,148.7 L92.3,148.7 C95.4,148.7 98.5,146.7 99.1,143.6 C111.1,74.7 216.5,24 216.5,24 L216.9,23.7 L217.3,23.4 L217.7,23.1 L218,22.7 L218.3,22.3 L218.6,21.9 L218.8,21.4 L219,20.9 L219.1,20.4 L219.2,19.9 L219.4,16.3 L219.4,5.5 L219.4,5.5 Z M252.7,7.1 L252.7,62.7 C252.7,62.7 251.6,69.3 259.5,69.3 C267.4,69.3 317.9,68.9 359.5,73.4 C401,77.9 415.5,89 415.5,100.5 C415.5,112 403.5,139 306.1,133.2 C306.1,133.2 285.9,132.3 282.7,125.2 C282.7,125.2 281.6,123.1 281.6,118.8 C281.6,118.8 281.8,113.5 275.9,113.5 L250.3,113.5 C250.3,113.5 244.5,113.3 244.5,120 L244.5,138 C244.5,138 243.7,144.3 251.4,145 C259,145.7 289.5,148 338.2,147.8 C386.9,147.6 482.8,141.1 482.8,100.1 C482.8,72.5 438.1,54.1 284.2,54.1 C284.2,54.1 278,54.9 278,47.7 L278,30.2 C278,30.2 278.1,24.2 284.6,24.2 L468,24.2 C468,24.2 474.6,24.8 474.6,18.8 L474.6,6.4 C474.6,6.4 474.9,0 467.8,0 L259,0 C259,0 252.7,0 252.7,7.1 L252.7,7.1 Z" id="Shape"></path>
        </g>
    </g>
</svg>