<?xml version="1.0" encoding="UTF-8" standalone="no"?>
<svg width="487px" height="92px" viewBox="0 0 487 92" version="1.1" xmlns="http://www.w3.org/2000/svg" xmlns:xlink="http://www.w3.org/1999/xlink">
    <!-- Generator: Sketch 39.1 (31720) - http://www.bohemiancoding.com/sketch -->
    <title>75d</title>
    <desc>Created with Sketch.</desc>
    <defs></defs>
    <g id="Page-1" stroke="none" stroke-width="1" fill="none" fill-rule="evenodd">
        <g id="75d">
            <path d="M129.7,5.8 L129.7,5.5 L129.6,5.2 L129.5,4.9 L129.4,4.6 L129.2,4.3 L129,4.2 L128.8,4 L128.6,3.8 L128.4,3.6 L128.2,3.4 L127.9,3.3 L127.6,3.2 L127.3,3.1 L127,3 L2.6,3 L2.3,3.1 L2,3.2 L1.8,3.3 L1.5,3.4 L1.3,3.6 L1.1,3.8 L0.8,4 L0.7,4.2 L0.5,4.4 L0.3,4.7 L0.2,4.9 L0.1,5.2 L0.1,6.1 C0.1,8.7 0.2,11.4 0.2,14 L0.2,14.6 L0.3,14.9 L0.4,15.2 L0.5,15.5 L0.7,15.8 L0.8,16 L1,16.2 L1.2,16.4 L1.4,16.6 L1.6,16.8 L2,16.9 L2.2,17 L2.5,17.1 L2.8,17.2 L3.1,17.2 C15.5,17.2 71,17.3 82.2,17.2 L95.9,17.2 C97.1,17.3 97.5,19 96.4,19.6 C79.3,30.1 33.3,57.9 28.8,87.2 C28.5,88.8 29.3,90.4 30.9,90.4 L54.6,90.4 C56.4,90.4 58.3,89.2 58.6,87.4 C65.7,46.7 128,16.8 128,16.8 L128.2,16.6 L128.4,16.4 L128.6,16.2 L128.8,16 L129,15.8 L129.2,15.5 L129.3,15.2 L129.4,14.9 L129.5,14.6 L129.6,14.3 L129.7,12.2 L129.7,5.8 L129.7,5.8 Z M149.4,6.8 L149.4,39.7 C149.4,39.7 148.7,43.6 153.4,43.6 C158.1,43.6 187.9,43.4 212.5,46 C237,48.7 245.6,55.2 245.6,62 C245.6,68.8 238.5,84.8 180.9,81.3 C180.9,81.3 169,80.7 167.1,76.6 C167.1,76.6 166.4,75.4 166.4,72.8 C166.4,72.8 166.5,69.7 163,69.7 L147.9,69.7 C147.9,69.7 144.5,69.6 144.5,73.5 L144.5,84.2 C144.5,84.2 144.1,87.9 148.6,88.3 C153.1,88.7 171.1,90.1 199.9,89.9 C228.7,89.8 285.4,85.9 285.4,61.7 C285.4,45.4 259,34.5 168,34.5 C168,34.5 164.3,34.9 164.3,30.7 L164.3,20.3 C164.3,20.3 164.4,16.7 168.2,16.7 L276.6,16.7 C276.6,16.7 280.5,17.1 280.5,13.5 L280.5,6.2 C280.5,6.2 280.6,2.4 276.5,2.4 L153.1,2.4 C153.1,2.4 149.4,2.6 149.4,6.8 L149.4,6.8 Z" id="Shape" fill="#BBBDBF"></path>
            <path d="M392,89.9 L302.4,89.9 L302.4,78.1 L304.2,78.1 C309.7,78.1 313.8,76.7 316.4,73.9 C319.9,70.2 319.7,65.3 319.7,65.2 L319.7,31.8 L355.2,31.8 L355.2,66.4 C355.2,75.4 361.7,76.7 362,76.7 C368.2,77.3 375.1,77.7 381.8,77.7 C401.4,77.7 446.9,74.5 446.9,44.6 C446.9,16.5 386.2,14.3 367.7,14.3 C364,14.3 361.7,14.4 361.7,14.4 L307.6,14.4 L307.6,2 L364.4,2 C367.2,1.9 371.3,1.9 376.4,1.9 C417.1,1.9 485.4,7.4 485.4,44.6 C485.4,87.7 407.6,89.9 392,89.9 L392,89.9 Z" id="Shape" fill="#231F20"></path>
            <path d="M376.4,3.6 C409.8,3.6 483.6,7.1 483.6,44.5 C483.6,86.2 406.5,88.1 392,88.1 L304.3,88.1 L304.3,79.9 C322.4,79.9 321.6,65.2 321.6,65.2 L321.6,33.6 L353.5,33.6 L353.5,66.4 L361.8,78.5 C367.5,79.1 374.4,79.5 381.9,79.5 C411.5,79.5 448.8,72.9 448.8,44.6 C448.8,14.9 387.6,12.5 367.8,12.5 C364,12.5 361.7,12.6 361.7,12.6 L309.4,12.6 L309.4,3.7 L361.2,3.7 C363.2,3.7 368.7,3.6 376.4,3.6 L376.4,3.6 Z M376.4,0 C371.3,0 367.1,0.1 364.4,0.1 L305.8,0.1 L305.8,16.1 L361.7,16.1 C361.9,16.1 364.1,16 367.8,16 C380.7,16 445.3,17.4 445.3,44.5 C445.3,72.8 401,75.9 382,75.9 C373.7,75.9 366.8,75.4 362.5,74.9 C361.5,74.7 357.3,73.4 357.3,66.4 L357.3,30 L318.2,30 L318.2,65.3 C318.2,65.3 318.3,69.6 315.3,72.7 C313,75.1 309.3,76.3 304.4,76.3 L300.8,76.3 L300.8,91.7 L392.1,91.7 C408,91.7 487.2,89.4 487.2,44.5 C487.2,24.2 468,0 376.4,0 L376.4,0 Z" id="Shape" fill="#D0D2D3"></path>
        </g>
    </g>
</svg>