<?xml version="1.0" encoding="UTF-8" standalone="no"?>
<svg width="238px" height="69px" viewBox="0 0 238 69" version="1.1" xmlns="http://www.w3.org/2000/svg" xmlns:xlink="http://www.w3.org/1999/xlink">
    <!-- Generator: Sketch 39.1 (31720) - http://www.bohemiancoding.com/sketch -->
    <title>85</title>
    <desc>Created with Sketch.</desc>
    <defs></defs>
    <g id="Page-1" stroke="none" stroke-width="1" fill="none" fill-rule="evenodd">
        <g id="85" fill="#BBBDBF">
            <path d="M237.2,46.2 L237.2,47.6 L237.1,48.3 L237,49 L236.8,49.7 L236.6,50.3 L236.4,50.9 L236.1,51.5 L235.8,52.1 L235,53.3 L234.1,54.4 L233,55.4 L231.8,56.4 L230.4,57.3 L228.9,58.2 L227.3,59 L225.5,59.8 L223.6,60.6 L221.6,61.3 L219.4,62 L217.1,62.7 L212.1,63.9 L206.6,64.9 L200.7,65.8 L194.4,66.5 L187.6,67.1 L180.4,67.5 L172.7,67.7 L164.6,67.8 L156.4,67.7 L148.1,67.4 L139.6,67 L131,66.4 L130.8,66.4 L130.6,66.3 L130.4,66.2 L130.2,66.1 L130,66 L129.8,65.9 L129.6,65.8 L129.4,65.6 L129.3,65.4 L129.2,65.2 L129.1,65 L129,64.8 L128.9,64.6 L128.8,64.4 L128.8,64 L128.8,54.2 L128.9,54 L129,53.8 L129.1,53.6 L129.2,53.4 L129.3,53.2 L129.5,53 L129.7,52.8 L129.9,52.7 L130.1,52.6 L130.3,52.5 L130.5,52.4 L130.7,52.3 L143.1,52.3 C144.6,52.3 145.6,53.3 145.5,54.8 L145.5,55.8 L145.6,56.2 L145.7,56.6 L145.8,57 L145.9,57.3 L146.1,57.6 L146.3,57.9 L146.5,58.2 L146.8,58.5 L147.1,58.8 L147.5,59.1 L147.9,59.3 L148.4,59.5 L148.9,59.7 L149.5,59.9 L150.8,60.2 L152.4,60.5 L154.4,60.8 L156.7,61 L159.3,61.2 L162.2,61.3 L165.5,61.4 L169.1,61.4 L173.5,61.3 L177.6,61.1 L181.5,60.8 L185.1,60.3 L188.5,59.7 L191.6,59 L194.5,58.1 L197.1,57.1 L198.3,56.6 L199.4,56 L200.4,55.4 L201.3,54.8 L202.2,54.2 L203,53.6 L203.7,53 L204.3,52.4 L204.8,51.7 L205.2,51 L205.6,50.3 L205.9,49.6 L206.1,48.9 L206.3,48.2 L206.4,47.4 L206.4,46.6 L206.3,45.7 L206.2,44.8 L206,44 L205.7,43.2 L205.2,42.4 L204.6,41.7 L203.9,41 L203.1,40.3 L202.1,39.6 L201,38.9 L199.8,38.3 L198.4,37.7 L196.9,37.1 L195.2,36.6 L193.4,36.1 L191.5,35.6 L187.1,34.8 L181.9,34.1 L175.9,33.5 L169.2,33 L161.7,32.6 L153.4,32.3 L144.4,32.1 L134.6,32 L134.2,32 L134,31.9 L133.8,31.8 L133.6,31.7 L133.4,31.6 L133.2,31.5 L133,31.3 L132.8,31.1 L132.7,30.9 L132.6,30.7 L132.5,30.5 L132.4,30.3 L132.3,30.1 L132.3,29.7 L132.6,3.1 L132.6,2.7 L132.7,2.5 L132.8,2.3 L132.9,2.1 L133,1.9 L133.1,1.7 L133.3,1.5 L133.5,1.3 L133.7,1.2 L133.9,1.1 L134.1,1 L134.3,0.9 L134.5,0.8 L231.6,0.8 L231.8,0.9 L232,1 L232.2,1.1 L232.4,1.2 L232.6,1.3 L232.8,1.5 L233,1.7 L233.1,1.9 L233.2,2.1 L233.3,2.3 L233.4,2.5 L233.5,2.7 L233.5,3.2 C233.5,5.2 233.4,7.3 233.4,9.3 L233.4,9.7 L233.3,9.9 L233.2,10.1 L233.1,10.3 L233,10.5 L232.9,10.7 L232.7,10.9 L232.5,11.1 L232.3,11.2 L232.1,11.3 L231.9,11.4 L231.7,11.5 L231.5,11.6 L146.1,11.6 L145.9,11.7 L145.7,11.8 L145.5,11.9 L145.3,12 L145.1,12.1 L144.9,12.3 L144.7,12.5 L144.6,12.7 L144.5,12.9 L144.4,13.1 L144.3,13.3 L144.2,13.5 L144.2,13.9 C144.2,16.8 144.1,19.7 144.1,22.7 L144.1,23.1 L144.2,23.3 L144.3,23.5 L144.4,23.7 L144.5,23.9 L144.6,24.1 L144.8,24.3 L145,24.5 L145.2,24.6 L145.4,24.7 L145.6,24.8 L145.8,24.9 L146,25 L154.1,25 L164,25.1 L173.3,25.3 L181.9,25.7 L189.9,26.2 L197.3,26.9 L204,27.8 L210.1,28.8 L215.6,30 L218.1,30.7 L220.5,31.4 L222.7,32.1 L224.8,32.9 L226.7,33.7 L228.5,34.6 L230.1,35.5 L231.6,36.5 L232.9,37.6 L234.1,38.7 L235.1,39.9 L235.5,40.5 L235.9,41.1 L236.2,41.7 L236.5,42.4 L236.8,43.1 L237,43.8 L237.2,44.5 L237.3,45.2 L237.2,46.2 L237.2,46.2 Z M116.7,49.3 L116.7,50.4 L116.6,51 L116.5,51.6 L116.4,52.2 L116.2,52.8 L116,53.4 L115.7,54 L115.4,54.6 L115.1,55.1 L114.7,55.6 L113.9,56.6 L113,57.5 L111.9,58.4 L110.7,59.3 L109.4,60.1 L108,60.9 L106.5,61.7 L104.9,62.4 L103.1,63.1 L101.2,63.8 L99.2,64.4 L95.1,65.5 L90.5,66.5 L85.5,67.4 L80.3,68.1 L74.9,68.7 L69.3,69.1 L57.9,69.4 L46.5,69.1 L35.6,68.2 L30.4,67.5 L25.5,66.7 L20.9,65.7 L16.7,64.6 L16.3,64.6 L14.4,64 L12.6,63.4 L10.9,62.7 L9.3,62 L7.8,61.3 L6.4,60.6 L5.2,59.8 L4.1,59 L3.1,58.1 L2.2,57.2 L1.4,56.2 L1.1,55.7 L0.8,55.2 L0.5,54.7 L0.3,54.2 L0.1,53.6 L-0.1,53 L-0.2,52.4 L-0.3,51.8 L-0.4,51.2 L-0.4,49.8 L-0.3,49 L-0.2,48.3 L-2.84217094e-14,47.6 L0.2,46.9 L0.5,46.2 L0.8,45.5 L1.2,44.8 L2.1,43.5 L3.1,42.3 L4.3,41.2 L5.7,40.1 L7.2,39.1 L8.9,38.1 L10.7,37.2 L12.7,36.3 L14.8,35.5 L17.1,34.7 L19.6,33.9 L22.2,33.2 L22.5,33.1 L22.7,33 L22.9,32.8 L23.1,32.6 L23.2,32.4 L23.3,32.2 L23.4,32 L23.4,31.5 L23.3,31.3 L23.2,31.1 L23.1,30.9 L22.9,30.7 L22.7,30.5 L22.5,30.3 L22.2,30.2 L20.6,29.6 L19.1,29 L17.7,28.4 L16.4,27.7 L15.2,27 L14.1,26.3 L13.1,25.6 L12.2,24.9 L11.3,24.2 L10.5,23.4 L9.8,22.6 L9.2,21.8 L9,21.4 L8.8,21 L8.6,20.5 L8.4,20 L8.3,19.5 L8.2,19 L8.1,18.5 L8.1,16.8 L8.2,16.2 L8.3,15.6 L8.5,15.1 L8.7,14.6 L9,14 L9.3,13.5 L9.6,13 L9.9,12.5 L10.6,11.6 L11.4,10.7 L12.3,9.9 L13.3,9.1 L14.4,8.4 L15.6,7.7 L16.9,7 L18.3,6.3 L19.8,5.7 L21.4,5.1 L23.1,4.5 L26.8,3.4 L30.8,2.5 L35,1.7 L39.5,1.1 L44.3,0.6 L49.3,0.3 L54.6,0.1 L60.1,2.84217094e-14 L65.4,0.1 L70.4,0.3 L75.1,0.6 L79.6,1 L83.8,1.5 L87.8,2.1 L91.5,2.9 L94.9,3.8 L96.5,4.3 L98,4.8 L99.4,5.3 L100.7,5.9 L101.9,6.5 L103,7.1 L104.1,7.7 L105.1,8.4 L106,9.1 L106.8,9.9 L107.5,10.7 L107.8,11.1 L108.1,11.5 L108.3,12 L108.5,12.5 L108.7,13 L108.9,13.5 L109,14 L109.1,14.5 L109.1,16.1 L109,16.7 L108.9,17.3 L108.7,17.9 L108.5,18.4 L108.3,18.9 L108,19.4 L107.7,19.9 L107,20.9 L106.1,21.8 L105.1,22.7 L104,23.5 L102.8,24.3 L101.4,25.1 L99.9,25.9 L98.3,26.6 L96.6,27.3 L94.7,28 L92.7,28.7 L90.6,29.4 L90.3,29.5 L90.1,29.6 L89.9,29.8 L89.7,30 L89.6,30.2 L89.5,30.4 L89.5,31.3 L89.6,31.6 L89.7,31.8 L89.8,32 L90,32.2 L90.2,32.4 L90.5,32.5 L90.8,32.6 L94.6,33.6 L98.1,34.6 L101.3,35.7 L104.2,36.8 L105.5,37.4 L106.8,38 L108,38.6 L109.1,39.2 L110.1,39.9 L111.1,40.6 L112,41.3 L112.8,42 L113.2,42.4 L113.6,42.8 L114,43.2 L114.3,43.6 L114.6,44 L114.9,44.4 L115.2,44.9 L115.4,45.4 L115.6,45.9 L115.8,46.4 L116,46.9 L116.1,47.4 L116.2,47.9 L116.3,48.4 L116.7,49.3 L116.7,49.3 Z M90.5,52.2 L90.5,51.6 L90.4,51.3 L90.3,51 L90.1,50.7 L89.9,50.3 L89.6,49.9 L89.3,49.5 L88.9,49.1 L88.4,48.7 L87.9,48.3 L87.3,47.9 L86.7,47.5 L86,47.1 L85.2,46.7 L84.4,46.3 L82.4,45.5 L80,44.7 L77.2,43.9 L74,43 L70.4,42.1 L66.4,41.2 L57.1,39.2 C51.9,38.2 46.7,37.1 41.6,36.1 L40,36.7 L38.5,37.3 L37.1,37.9 L35.8,38.5 L34.6,39.1 L33.5,39.7 L32.5,40.3 L31.5,41 L30.8,41.5 L30.2,42 L29.6,42.5 L29.1,43 L28.6,43.5 L28.2,44 L27.8,44.5 L27.5,45 L27.2,45.5 L26.9,46 L26.7,46.5 L26.5,47 L26.4,47.5 L26.3,48.1 L26.2,48.7 L26.2,50 L26.3,50.7 L26.4,51.3 L26.6,51.9 L26.9,52.5 L27.2,53.1 L27.6,53.7 L28,54.3 L28.5,54.9 L29.1,55.5 L29.8,56.1 L30.5,56.6 L31.3,57.1 L32.2,57.6 L33.2,58.1 L34.3,58.6 L36.6,59.5 L39.1,60.3 L41.8,61 L44.7,61.6 L47.8,62 L51.2,62.3 L54.8,62.5 L58.6,62.6 L62.1,62.5 L65.5,62.3 L68.7,62 L71.7,61.6 L74.6,61.1 L77.3,60.5 L79.9,59.8 L82.3,59 L83.4,58.6 L84.4,58.1 L85.4,57.6 L86.3,57.1 L87.1,56.6 L87.8,56.1 L88.4,55.6 L88.9,55.1 L89.4,54.6 L89.8,54.1 L90.1,53.6 L90.3,53.2 L90.5,52.8 L90.6,52.4 L90.7,52 L90.5,52.2 L90.5,52.2 Z M86.1,15.8 L86.1,15.4 L86,15 L85.9,14.6 L85.8,14.2 L85.6,13.8 L85.4,13.4 L85.1,13 L84.7,12.6 L84.3,12.2 L83.8,11.8 L83.2,11.4 L82.6,11 L81.9,10.6 L81.1,10.2 L80.2,9.8 L79.3,9.4 L77.3,8.7 L75.1,8.1 L72.7,7.6 L70.2,7.2 L67.5,6.9 L64.6,6.7 L61.5,6.6 L55.4,6.6 L52.6,6.7 L50,6.9 L47.5,7.2 L45.1,7.6 L42.8,8.1 L40.6,8.7 L38.6,9.4 L37.6,9.8 L36.7,10.2 L35.9,10.6 L35.2,11 L34.5,11.4 L33.9,11.8 L33.4,12.2 L32.9,12.6 L32.5,13 L32.2,13.4 L32,13.7 L31.8,14 L31.7,14.3 L31.6,14.6 L31.5,14.9 L31.5,15.8 L31.6,16.1 L31.7,16.4 L31.9,16.7 L32.1,17 L32.4,17.3 L32.7,17.7 L33.1,18.1 L33.6,18.5 L34.1,18.9 L34.7,19.3 L35.4,19.7 L36.1,20.1 L36.9,20.5 L37.8,20.9 L39.8,21.6 L42.3,22.4 L45.3,23.3 L48.8,24.2 L57.3,26.2 L67.7,28.4 L69.3,27.9 L70.9,27.4 L72.4,26.9 L73.8,26.4 L75.1,25.9 L76.3,25.4 L77.5,24.9 L78.6,24.4 L79.5,23.9 L80.4,23.4 L81.2,22.9 L81.9,22.4 L82.6,21.9 L83.2,21.4 L83.7,20.9 L84.2,20.4 L84.6,19.9 L84.9,19.4 L85.2,18.9 L85.4,18.4 L85.6,17.9 L85.7,17.4 L85.8,16.9 L86.1,15.8 L86.1,15.8 Z" id="Shape"></path>
        </g>
    </g>
</svg>