<?xml version="1.0" encoding="UTF-8" standalone="no"?>
<svg width="176px" height="31px" viewBox="0 0 176 31" version="1.1" xmlns="http://www.w3.org/2000/svg" xmlns:xlink="http://www.w3.org/1999/xlink">
    <!-- Generator: Sketch 39.1 (31720) - http://www.bohemiancoding.com/sketch -->
    <title>85d</title>
    <desc>Created with Sketch.</desc>
    <defs></defs>
    <g id="Page-1" stroke="none" stroke-width="1" fill="none" fill-rule="evenodd">
        <g id="85d">
            <path d="M40.81,15.224 C40.088,15.046 40.05,14.539 40.05,14.539 C40.05,13.789 40.672,13.713 40.672,13.713 C49.122,11.467 48.818,7.699 48.818,7.699 C48.818,2.599 39.15,0.581 26.132,0.581 C13.114,0.581 3.75,3.97 3.75,8.005 C3.75,12.04 9.983,13.971 9.983,13.971 C9.983,13.971 10.563,14.105 10.563,14.771 C10.563,14.771 10.563,15.247 9.925,15.428 C9.287,15.609 -3.4589844e-15,17.387 -3.4589844e-15,23.554 C-3.4589844e-15,23.554 -0.362,31.49 25.864,31.49 C38.311,31.49 52.052,28.79 52.052,23.006 C52.052,17.222 41.534,15.402 40.812,15.224 L40.81,15.224 Z M26.208,3.474 C31.461,3.474 38.388,4.694 38.388,7.586 C38.388,10.478 32.908,12.496 30.358,13.106 L21.602,11.126 C21.602,11.126 14.142,9.566 14.142,7.282 C14.142,4.998 20.956,3.475 26.209,3.475 L26.208,3.474 Z M27.045,28.559 C20.917,28.559 11.705,27.339 11.705,22.963 C11.705,18.587 18.555,16.683 18.555,16.683 C32.373,19.386 40.405,21.023 40.405,23.801 C40.405,26.579 33.175,28.558 27.045,28.558 L27.045,28.559 Z M59.056,2.295 L59.056,13.562 C59.056,13.562 58.828,14.894 60.426,14.894 C62.026,14.894 72.264,14.818 80.676,15.731 C89.088,16.644 92.019,18.891 92.019,21.213 C92.019,23.535 89.582,29.016 69.865,27.836 C69.865,27.836 65.773,27.646 65.125,26.218 C65.125,26.218 64.898,25.798 64.898,24.924 C64.898,24.924 64.935,23.858 63.736,23.858 L58.56,23.858 C58.56,23.858 57.38,23.82 57.38,25.171 L57.38,28.825 C57.38,28.825 57.23,30.1 58.77,30.233 C60.312,30.366 66.49,30.843 76.362,30.791 C86.232,30.741 105.646,29.433 105.646,21.136 C105.646,15.541 96.586,11.81 65.413,11.81 C65.413,11.81 64.157,11.96 64.157,10.515 L64.157,6.962 C64.157,6.962 64.182,5.744 65.502,5.744 L102.652,5.744 C102.652,5.744 103.997,5.871 103.997,4.654 L103.997,2.14 C103.997,2.14 104.047,0.847 102.627,0.847 L60.35,0.847 C60.35,0.847 59.056,0.849 59.056,2.295 L59.056,2.295 Z" id="Shape" fill="#BBBDBF"></path>
            <path d="M143.54,30.793 C143.014,30.793 142.723,30.786 142.723,30.786 L112.86,30.786 L112.86,26.75 L113.468,26.75 C115.346,26.75 116.758,26.265 117.668,25.306 C118.872,24.038 118.798,22.366 118.798,22.349 L118.796,10.897 L130.956,10.897 L130.956,22.754 C130.956,25.874 133.18,26.267 133.274,26.284 C135.401,26.502 137.754,26.621 140.048,26.621 C146.756,26.621 162.358,25.514 162.358,15.263 C162.358,11.226 158.7,8.293 151.485,6.543 C145.508,5.096 138.722,4.88 135.208,4.88 C133.925,4.88 133.158,4.91 133.15,4.91 L114.602,4.912 L114.602,0.672 L132.974,0.672 C133.208,0.672 133.578,0.664 134.067,0.654 C135.027,0.636 136.441,0.608 138.172,0.608 C152.124,0.608 175.53,2.508 175.53,15.236 C175.53,30.043 148.882,30.793 143.54,30.793 L143.54,30.793 Z" id="Shape" fill="#231F20"></path>
            <path d="M138.173,1.218 C149.608,1.218 174.923,2.412 174.923,15.238 C174.923,29.513 148.509,30.184 143.54,30.184 C143.024,30.184 142.74,30.177 142.74,30.177 L113.468,30.177 L113.468,27.36 C119.672,27.36 119.406,22.317 119.406,22.317 L119.406,11.507 L130.349,11.507 L130.349,22.755 L133.177,26.885 C135.139,27.088 137.509,27.231 140.047,27.231 C150.179,27.231 162.967,24.964 162.967,15.264 C162.967,5.092 141.981,4.271 135.207,4.271 C133.903,4.271 133.127,4.301 133.127,4.301 L115.21,4.301 L115.21,1.28 L132.973,1.28 C133.668,1.28 135.555,1.218 138.171,1.218 L138.173,1.218 Z M138.171,0 C136.433,0 135.001,0.028 134.054,0.046 C133.571,0.056 133.204,0.063 132.974,0.063 L113.993,0.063 L113.993,5.518 L133.174,5.518 C133.182,5.518 133.948,5.488 135.208,5.488 C139.64,5.488 161.751,5.958 161.751,15.263 C161.751,24.965 146.574,26.013 140.048,26.013 C137.208,26.013 134.848,25.833 133.352,25.679 C133.024,25.607 131.566,25.152 131.566,22.755 L131.566,10.29 L118.19,10.29 L118.19,22.379 C118.19,22.385 118.23,23.847 117.21,24.905 C116.42,25.725 115.16,26.141 113.47,26.141 L112.25,26.141 L112.25,31.394 L142.726,31.394 C142.796,31.396 143.079,31.401 143.542,31.401 C148.987,31.401 176.142,30.621 176.142,15.236 C176.142,9.051 171.092,4.676 161.129,2.234 C155.074,0.752 147.352,0 138.173,0 L138.171,0 Z" id="Shape" fill="#D0D2D3"></path>
        </g>
    </g>
</svg>