<?xml version="1.0" encoding="UTF-8" standalone="no"?>
<svg width="92px" height="28px" viewBox="0 0 92 28" version="1.1" xmlns="http://www.w3.org/2000/svg" xmlns:xlink="http://www.w3.org/1999/xlink">
    <!-- Generator: Sketch 39.1 (31720) - http://www.bohemiancoding.com/sketch -->
    <title>90</title>
    <desc>Created with Sketch.</desc>
    <defs></defs>
    <g id="Page-1" stroke="none" stroke-width="1" fill="none" fill-rule="evenodd">
        <g id="90" fill="#BCBEC0">
            <path d="M32.6,0.2 L13.4,0.2 C7.2,0.2 5.68434189e-14,3.5 5.68434189e-14,9.2 C5.68434189e-14,15.8 7.2,18.2 13.7,18.2 L34.9,18.2 C35.4,18.2 35.8,18.6 35.7,19.1 C35.2,22.3 31.7,23.3 27.2,23.3 L5.5,23.3 C4.6,23.3 4.3,24 4.2,24.8 L3.9,27 C3.9,27.7 4.4,28.2 5.1,28.2 L28.3,28.2 C34.9,28.2 44.4,24.9 45.2,13.6 C45.7,6.8 41.4,0.2 32.6,0.2 L32.6,0.2 L32.6,0.2 Z M28.8,14.7 L16.9,14.7 C12.9,14.7 8.5,13.2 8.5,9.2 C8.5,5.7 12.5,3.7 16.3,3.7 L29.2,3.7 C33.4,3.7 35.8,6.2 36.2,9.2 C36.9,14.2 34.6,14.7 28.8,14.7 L28.8,14.7 L28.8,14.7 Z M78.5,0.3 L66.2,0.3 C66.2,0.3 50.3,-0.7 48.8,10.4 L48.3,16.2 C48.3,16.2 47.5,23.5 53.6,26.4 C53.6,26.4 56.9,28.3 63.5,28.3 L77.4,28.3 C77.4,28.3 91.2,28.6 91.9,17.7 L92.3,10.8 C92.1,10.7 92.5,0.3 78.5,0.3 L78.5,0.3 L78.5,0.3 Z M82.7,18 C82.1,25.5 74.1,25.1 74.1,25.1 C74.1,25.1 72.4,25.3 64,25 C55.8,24.7 57.1,14.9 57.1,14.9 L57.4,11.9 C58.2,2.9 66.1,3.6 66.1,3.6 C66.1,3.6 65.3,3.5 75,3.5 C84.7,3.5 83.4,10.4 82.7,18 L82.7,18 L82.7,18 Z" id="Shape"></path>
        </g>
    </g>
</svg>