<?xml version="1.0" encoding="UTF-8" standalone="no"?>
<svg width="161px" height="30px" viewBox="0 0 161 30" version="1.1" xmlns="http://www.w3.org/2000/svg" xmlns:xlink="http://www.w3.org/1999/xlink">
    <!-- Generator: Sketch 39.1 (31720) - http://www.bohemiancoding.com/sketch -->
    <title>90d</title>
    <desc>Created with Sketch.</desc>
    <defs></defs>
    <g id="Page-1" stroke="none" stroke-width="1" fill="none" fill-rule="evenodd">
        <g id="90d">
            <path d="M102.9,1.2 L102.9,4.1 L119.8,4.1 C119.8,4.1 148,3 148,14.5 C148,26 129.1,26.4 119.8,25.5 C119.8,25.5 117.1,25.1 117.1,21.6 L117.1,11 L106.8,11 L106.8,21.2 C106.8,21.2 107.1,26 101.2,26 L101.2,28.7 L128.9,28.7 C128.9,28.7 159.3,29.5 159.3,14.6 C159.3,-0.3 123.2,1.2 119.7,1.2 L102.9,1.2 L102.9,1.2 Z" id="Shape" fill="#000000"></path>
            <path d="M124.6,1.2 C135.4,1.2 159.3,2.3 159.3,14.4 C159.3,27.9 134.3,28.5 129.6,28.5 L101.1,28.5 L101.1,25.8 C107,25.8 106.7,21 106.7,21 L106.7,10.9 L117,10.9 L117,21.5 C117,25 119.7,25.4 119.7,25.4 C121.6,25.6 123.8,25.7 126.2,25.7 C135.8,25.7 147.9,23.6 147.9,14.4 C148,4.8 128.2,4 121.8,4 L102.9,4 L102.9,1.2 L124.6,1.2 L124.6,1.2 Z M124.6,0 L101.7,0 L101.7,5.3 L121.8,5.3 C126,5.3 146.9,5.7 146.9,14.5 C146.9,23.7 132.6,24.7 126.4,24.7 C123.7,24.7 121.5,24.5 120.1,24.4 C119.8,24.3 118.4,23.9 118.4,21.6 L118.4,9.7 L105.7,9.7 L105.7,21.1 C105.7,21.1 105.7,22.5 104.8,23.5 C104.1,24.3 102.9,24.7 101.3,24.7 L100.1,24.7 L100.1,29.8 L129.8,29.8 C134.9,29.8 160.6,29.1 160.6,14.5 C160.5,7.8 154.2,0 124.6,0 L124.6,0 Z" id="Shape" fill="#D1D3D4"></path>
            <path d="M32.6,0.9 L13.4,0.9 C7.2,0.9 0,4.2 0,9.9 C0,16.5 7.2,18.9 13.7,18.9 L34.9,18.9 C35.4,18.9 35.8,19.3 35.7,19.8 C35.2,23 31.7,24 27.2,24 L5.5,24 C4.6,24 4.3,24.7 4.2,25.5 L3.9,27.7 C3.9,28.4 4.4,28.9 5.1,28.9 L28.3,28.9 C34.9,28.9 44.4,25.6 45.2,14.3 C45.7,7.5 41.4,0.9 32.6,0.9 L32.6,0.9 Z M28.8,15.4 L16.9,15.4 C12.9,15.4 8.5,13.9 8.5,9.9 C8.5,6.4 12.5,4.4 16.3,4.4 L29.2,4.4 C33.4,4.4 35.8,6.9 36.2,9.9 C36.9,14.9 34.6,15.4 28.8,15.4 L28.8,15.4 Z M78.5,1 L66.2,1 C66.2,1 50.3,-1.55431223e-15 48.8,11.1 L48.3,16.9 C48.3,16.9 47.5,24.2 53.6,27.1 C53.6,27.1 56.9,29 63.5,29 L77.4,29 C77.4,29 91.2,29.3 91.9,18.4 L92.3,11.5 C92.1,11.4 92.5,1 78.5,1 L78.5,1 Z M82.7,18.7 C82.1,26.2 74.1,25.8 74.1,25.8 C74.1,25.8 72.4,26 64,25.7 C55.8,25.4 57.1,15.6 57.1,15.6 L57.4,12.6 C58.2,3.6 66.1,4.3 66.1,4.3 C66.1,4.3 65.3,4.2 75,4.2 C84.7,4.2 83.4,11.1 82.7,18.7 L82.7,18.7 Z" id="Shape" fill="#BCBEC0"></path>
        </g>
    </g>
</svg>