<?xml version="1.0" encoding="UTF-8" standalone="no"?>
<svg width="300px" height="38px" viewBox="0 0 300 38" version="1.1" xmlns="http://www.w3.org/2000/svg" xmlns:xlink="http://www.w3.org/1999/xlink">
    <!-- Generator: Sketch 39.1 (31720) - http://www.bohemiancoding.com/sketch -->
    <title>p100d</title>
    <desc>Created with Sketch.</desc>
    <defs></defs>
    <g id="Page-1" stroke="none" stroke-width="1" fill="none" fill-rule="evenodd">
        <g id="p100d">
            <path d="M162.4,16.2 L162.2,14.7 L161.9,13.2 L161.4,11.7 L160.9,10.8 L160.3,9.9 L159.6,9 L158.8,8.2 L157.7,7.3 L156.5,6.6 L155.3,6 L153.2,5.3 L151,4.9 L148.8,4.7 L146.7,4.6 L144.6,4.5 L138.3,4.4 L129.8,4.4 L127.6,4.5 L125.3,4.8 L123,5.4 L120.8,6.1 L119.4,6.7 L118.1,7.4 L116.8,8.3 L115.7,9.3 L114.7,10.5 L113.8,11.8 L113.1,13.2 L112.6,14.6 L112.2,16.1 L111.9,18.3 L111.7,20.5 L111.7,21.4 L111.6,23.5 L111.7,25.6 L111.9,27 L112.3,28.4 L112.8,29.8 L113.3,30.8 L113.9,31.7 L114.6,32.5 L115.4,33.3 L116.6,34.2 L117.9,34.9 L119.2,35.5 L121.4,36.1 L123.6,36.5 L125.8,36.8 L128,36.9 L130.2,37 L136.5,37.1 L142.9,37.1 L145.1,37 L147.3,36.9 L149.5,36.6 L151.7,36.2 L153.8,35.5 L155.1,35 L156.3,34.3 L157.5,33.5 L158.3,32.8 L159,32 L159.7,31.2 L160.3,30.3 L161,28.9 L161.5,27.4 L161.8,25.9 L162.1,23.7 L162.2,21.5 L162.3,20.6 L162.4,18.4 L162.4,16.2 L162.4,16.2 Z M152.1,19.7 L152,22.2 L151.7,24.6 L151.7,24.7 L151.4,26.4 L150.9,28.1 L150.5,28.9 L150.1,29.7 L149.6,30.4 L149,31 L148.9,31.1 L148.1,31.7 L147.2,32.2 L146.2,32.6 L145.2,32.9 L143.8,33.1 L142.4,33.2 L136.4,33.2 L131.9,33.1 L130.5,33.1 L129.2,33 L128,33 L127,32.8 L126.1,32.4 L125.2,31.9 L124.5,31.4 L124.4,31.3 L123.8,30.7 L123.3,30 L122.9,29.2 L122.5,28.4 L122.2,27.2 L122,26 L121.9,24.8 L121.9,22.3 L122,19.8 L122.3,17.5 L122.3,17.3 L122.7,15.5 L123.3,13.7 L123.7,12.9 L124.2,12.1 L124.8,11.4 L125.4,10.8 L125.5,10.7 L126.3,10.1 L127.2,9.6 L128.2,9.2 L129.2,8.9 L130.6,8.7 L132,8.6 L133.4,8.5 L138.1,8.5 L142.7,8.6 L144.1,8.6 L145.4,8.7 L146.7,8.9 L147.7,9.2 L148.6,9.6 L149.5,10.1 L150.2,10.8 L150.3,10.9 L150.8,11.6 L151.2,12.4 L151.5,13.2 L151.8,14 L152.1,15.7 L152.2,17.4 L152.2,19.7 L152.1,19.7 Z M220.3,16.2 L220.1,14.7 L219.8,13.2 L219.3,11.7 L218.8,10.8 L218.2,9.9 L217.5,9 L216.7,8.2 L215.6,7.3 L214.4,6.6 L213.2,6 L211.1,5.3 L208.9,4.9 L206.7,4.7 L204.6,4.6 L202.5,4.5 L196.2,4.4 L187.7,4.4 L185.5,4.5 L183.2,4.8 L181,5.3 L178.8,6 L177.4,6.6 L176,7.5 L174.7,8.4 L173.6,9.4 L172.6,10.6 L171.7,11.9 L171,13.3 L170.5,14.7 L170.1,16.2 L169.8,18.4 L169.6,20.6 L169.6,21.5 L169.5,23.6 L169.6,25.7 L169.8,27.1 L170.2,28.5 L170.7,29.9 L171.2,30.9 L171.8,31.8 L172.5,32.6 L173.3,33.4 L174.5,34.3 L175.8,35 L177.1,35.6 L179.3,36.2 L181.5,36.6 L183.7,36.9 L185.9,37 L188.1,37.1 L194.4,37.2 L200.8,37.2 L203,37.1 L205.2,37 L207.4,36.7 L209.6,36.3 L211.7,35.6 L213,35.1 L214.2,34.4 L215.4,33.6 L216.2,32.9 L216.9,32.1 L217.6,31.3 L218.2,30.4 L218.9,29 L219.4,27.5 L219.7,26 L220,23.8 L220.1,21.6 L220.2,20.7 L220.3,18.5 L220.3,16.2 L220.3,16.2 Z M209.9,19.7 L209.8,22.2 L209.5,24.6 L209.5,24.7 L209.2,26.4 L208.7,28.1 L208.3,28.9 L207.9,29.7 L207.4,30.4 L206.8,31 L206.7,31.1 L205.9,31.7 L205,32.2 L204,32.6 L203,32.9 L201.6,33.1 L200.2,33.2 L194.2,33.2 L189.7,33.1 L188.3,33.1 L187,33 L185.7,32.8 L184.7,32.6 L183.8,32.2 L182.9,31.7 L182.2,31.2 L182.1,31.1 L181.5,30.5 L181,29.8 L180.5,29 L180.1,28.2 L179.8,27 L179.6,25.8 L179.5,24.6 L179.5,22.1 L179.6,19.6 L179.9,17.3 L179.9,17.1 L180.3,15.3 L180.9,13.5 L181.3,12.7 L182,12 L182.6,11.3 L183.2,10.7 L183.3,10.6 L184,10 L184.9,9.5 L185.9,9.1 L186.9,8.8 L188.3,8.6 L189.7,8.5 L191.1,8.4 L195.8,8.4 L200.4,8.5 L201.8,8.5 L203.1,8.6 L204.4,8.8 L205.4,9.1 L206.3,9.5 L207.2,10 L207.9,10.7 L208,10.8 L208.5,11.5 L208.9,12.3 L209.2,13.1 L209.5,13.9 L209.8,15.6 L209.9,17.3 L209.9,19.7 L209.9,19.7 Z M104.2,33.6 C102.4,33.3 100.9,32.9 100.5,31.7 C100.4,31.3 100.3,31 100.3,30.5 L100.3,26.2 C100.3,25.4 100.7,18.1 100.7,18.1 L101.4,4.8 L83.5,4.8 L83.3,8 C84.5,8.1 85.7,8.2 86.8,8.4 C88.6,8.7 90.1,9.1 90.5,10.3 C90.6,10.7 90.7,11 90.7,11.5 L90.7,16.6 C90.7,17.2 90.5,21.2 90.3,23.9 C90.2,25.1 89.7,30.1 89.6,30.5 L89.3,31.7 C88.8,32.9 87.3,33.3 85.4,33.6 C84.2,33.8 83,33.9 81.8,34 L81.6,37.2 L107.3,37.2 L107.5,34 C106.5,34 105.3,33.8 104.2,33.6 L104.2,33.6 Z" id="Shape" fill="#BCBEC0"></path>
            <path d="M2.3,36.5 C1.7,36.5 1.2,36.1 1.2,35.3 L1.2,34.5 C1.2,33.9 1.6,33.3 2.4,33.3 C3.7,33.3 7.4,33 9.7,31.5 C9.7,31.5 10.2,31.2 10.3,30.5 C10.4,29.7 10.9,25.1 10.9,18.4 C10.9,18.4 10.8,17.9 11.2,17.5 C11.4,17.3 11.7,17.1 12,17.1 L42.1,17.1 C44.7,17.1 57.7,16.8 57.7,10.7 C57.7,4 40.1,4 39.4,4 L5.8,4 C5.6,4 5.3,4 5,3.8 C4.4,3.7 3.7,3.3 1.7,3 C1.2,2.9 0.7,2.6 0.7,2 L0.7,1.7 C0.7,1.7 0.7,1.3 0.9,1.1 C1,0.9 1.3,0.8 1.7,0.8 L39.7,0.7 C42,0.7 50,0.8 57.5,2.1 C67.3,3.8 72.3,6.9 72.3,11.2 C72.3,20.8 47.6,21.9 29,21.9 L27.1,21.9 C26.8,21.9 25.9,22 25.9,23.4 C25.9,25.6 26.2,29.7 26.2,29.8 C26.2,30.3 26.3,30.9 26.4,31 C26.9,31.8 28.9,32.3 30.5,32.6 C34.3,33.3 37.9,33.3 37.9,33.3 C38.5,33.3 39.1,33.7 39.1,34.5 L39.1,35.2 C39.1,35.3 39.1,35.7 38.8,36.1 C38.6,36.3 38.4,36.5 37.9,36.5 L2.3,36.5 L2.3,36.5 Z" id="Shape" fill="#ED1C24"></path>
            <path d="M39.6,1.3 C44.2,1.3 71.5,1.7 71.5,11.1 C71.5,20.9 41.6,21.1 28.9,21.1 L27,21.1 C27,21.1 25.1,21.1 25.2,23.3 C25.2,25.5 25.5,29.7 25.5,29.7 C25.5,29.7 25.6,30.9 25.7,31.2 C25.9,31.5 26.4,32.4 30.3,33.2 C34.2,33.9 37.8,34 37.8,34 C37.9,34 38.3,34 38.3,34.5 L38.3,35.2 C38.3,35.2 38.3,35.7 37.8,35.7 L2.2,35.7 C2.2,35.7 1.7,35.7 1.7,35.2 L1.7,34.4 C1.7,34.4 1.7,33.9 2.2,33.9 C2.7,33.9 7.1,33.8 9.8,32 C9.8,32 10.5,31.5 10.7,30.5 C10.8,29.5 11.3,25 11.3,18.3 C11.3,18.3 11.2,17.8 11.7,17.8 L41.8,17.8 C45.1,17.8 58,17.4 58,10.7 C58,3.5 40.8,3.3 39,3.3 L5.5,3.3 C5.4,3.3 5.2,3.3 5,3.2 C4.8,3.2 4,2.7 1.7,2.4 C1.7,2.4 1.3,2.4 1.3,2.1 L1.3,1.7 C1.3,1.7 1.3,1.4 1.6,1.4 L39,1.3 L39.6,1.3 L39.6,1.3 Z M39.6,0 L39,0 L1.7,0.1 C1.2,0.1 0.7,0.3 0.4,0.6 C0.1,0.9 0,1.4 0,1.8 L0,2 C0,2.9 0.7,3.6 1.6,3.7 C3.5,3.9 4.1,4.3 4.4,4.4 L4.5,4.4 C4.9,4.6 5.4,4.7 5.6,4.7 L39.2,4.7 C46.3,4.7 56.8,6.3 56.8,10.8 C56.8,16.4 43.4,16.5 41.9,16.5 L11.9,16.5 C11.4,16.5 10.9,16.7 10.6,17.1 C10.2,17.6 10.1,18.2 10.2,18.5 C10.2,25.2 9.7,29.6 9.6,30.4 C9.6,30.7 9.3,30.9 9.3,30.9 C7.2,32.3 3.6,32.6 2.4,32.6 C1.2,32.6 0.6,33.5 0.6,34.4 L0.6,35.2 C0.6,36.3 1.5,37 2.4,37 L38,37 C38.5,37 39,36.8 39.4,36.4 C39.9,35.9 39.9,35.2 39.9,35 L39.9,34.4 C39.9,33.3 39.1,32.5 38.1,32.5 L38,32.5 C37.6,32.5 34.2,32.4 30.7,31.8 C28.5,31.4 27.4,30.9 27.1,30.5 C27.1,30.3 27,29.9 27,29.6 C27,29.5 26.8,25.4 26.7,23.3 C26.7,23.1 26.7,22.8 26.9,22.6 C27,22.5 27.2,22.4 27.2,22.4 L29.1,22.4 C49.6,22.4 73.1,21.1 73.1,11 C72.9,0.8 47.4,0 39.6,0 L39.6,0 Z" id="Shape" fill="#D1D3D4"></path>
            <path d="M264.1,37.5 L230.3,37.5 L230.3,33 L231,33 C233.1,33 234.6,32.5 235.6,31.4 C236.9,30 236.9,28.1 236.9,28.1 L236.9,15.5 L250.3,15.5 L250.3,28.6 C250.3,32 252.8,32.5 252.9,32.5 C255.2,32.7 257.8,32.9 260.4,32.9 C267.8,32.9 285,31.7 285,20.4 C285,9.8 262.1,9 255.1,9 L232.3,9 L232.3,4.3 L253.8,4.3 C254.9,4.3 256.4,4.2 258.3,4.2 C273.7,4.2 299.5,6.3 299.5,20.3 C299.3,36.6 269.9,37.5 264.1,37.5 L264.1,37.5 Z" id="Shape" fill="#ED1C24"></path>
            <path d="M258.1,4.9 C270.7,4.9 298.6,6.2 298.6,20.4 C298.6,36.1 269.5,36.9 264,36.9 L230.8,36.9 L230.8,33.8 C237.6,33.8 237.3,28.2 237.3,28.2 L237.3,16.2 L249.4,16.2 L249.4,28.6 L252.5,33.2 C254.7,33.4 257.3,33.6 260.1,33.6 C271.3,33.6 285.4,31.1 285.4,20.4 C285.4,9.2 262.3,8.3 254.8,8.3 L232.7,8.3 L232.7,4.9 L258.1,4.9 L258.1,4.9 Z M258.1,3.5 C256.2,3.5 254.6,3.5 253.6,3.6 L231.5,3.6 L231.5,9.5 L254.9,9.5 C259.8,9.5 284.2,10 284.2,20.3 C284.2,31 267.5,32.2 260.3,32.2 C257.2,32.2 254.6,32 252.9,31.8 C252.5,31.7 250.9,31.2 250.9,28.6 L250.9,14.9 L236.2,14.9 L236.2,28.1 C236.2,28.1 236.2,29.7 235.1,30.9 C234.2,31.8 232.8,32.3 231,32.3 L229.7,32.3 L229.7,38 L264.2,38 C270.2,38 300.1,37.1 300.1,20.2 C300,12.7 292.7,3.5 258.1,3.5 L258.1,3.5 Z" id="Shape" fill="#D1D3D4"></path>
        </g>
    </g>
</svg>