<?xml version="1.0" encoding="UTF-8" standalone="no"?>
<svg width="401px" height="78px" viewBox="0 0 401 78" version="1.1" xmlns="http://www.w3.org/2000/svg" xmlns:xlink="http://www.w3.org/1999/xlink">
    <!-- Generator: Sketch 39.1 (31720) - http://www.bohemiancoding.com/sketch -->
    <title>p85</title>
    <desc>Created with Sketch.</desc>
    <defs></defs>
    <g id="Page-1" stroke="none" stroke-width="1" fill="none" fill-rule="evenodd">
        <g id="p85">
            <path d="M401.2,54.9 L401.2,56.3 L401.1,57 L401,57.7 L400.8,58.4 L400.6,59 L400.4,59.6 L400.1,60.2 L399.8,60.8 L399,62 L398.1,63.1 L397,64.1 L395.8,65.1 L394.4,66 L392.9,66.9 L391.3,67.7 L389.5,68.5 L387.6,69.3 L385.6,70 L383.4,70.7 L381.1,71.4 L376.1,72.6 L370.6,73.6 L364.7,74.5 L358.4,75.2 L351.6,75.8 L344.4,76.2 L336.7,76.4 L328.6,76.5 L320.4,76.4 L312.1,76.1 L303.6,75.7 L295,75.1 L294.8,75.1 L294.6,75 L294.4,74.9 L294.2,74.8 L294,74.7 L293.8,74.6 L293.6,74.5 L293.4,74.3 L293.3,74.1 L293.2,73.9 L293,74 L292.9,73.8 L292.8,73.6 L292.7,73.4 L292.7,73 L292.7,63.2 L292.8,63 L292.9,62.8 L293,62.6 L293.1,62.4 L293.2,62.2 L293.4,62 L293.6,61.8 L293.8,61.7 L294,61.6 L294.2,61.5 L294.4,61.4 L294.6,61.3 L307,61.3 C308.5,61.3 309.5,62.3 309.4,63.8 L309.4,64.8 L309.5,65.2 L309.6,65.6 L309.7,66 L309.8,66.3 L310,66.6 L310.2,66.9 L310.4,67.2 L310.7,67.5 L311,67.8 L311.4,68.1 L311.8,68.3 L312.3,68.5 L312.8,68.7 L313.4,68.9 L314.7,69.2 L316.3,69.5 L318.3,69.8 L320.6,70 L323.2,70.2 L326.1,70.3 L329.4,70.4 L333,70.4 L337.4,70.3 L341.5,70.1 L345.4,69.8 L349,69.3 L352.4,68.7 L355.5,68 L358.4,67.1 L361,66.1 L362.2,65.6 L363.3,65 L364.3,64.4 L365.2,63.8 L366.1,63.2 L366.9,62.6 L367.6,62 L368.2,61.4 L368.7,60.7 L369.1,60 L369.5,59.3 L369.8,58.6 L370,57.9 L370.2,57.2 L370.3,56.4 L370.3,55.6 L370.2,54.7 L370.1,53.8 L369.9,53 L369.6,52.2 L369.1,51.4 L368.5,50.7 L367.8,50 L367,49.3 L366,48.6 L364.9,47.9 L363.7,47.3 L362.3,46.7 L360.8,46.1 L359.1,45.6 L357.3,45.1 L355.4,44.6 L351,43.8 L345.8,43.1 L339.8,42.5 L333.1,42 L325.6,41.6 L317.3,41.3 L308.3,41.1 L298.5,41 L298.1,41 L297.9,40.9 L297.7,40.8 L297.5,40.7 L297.3,40.6 L297.1,40.5 L296.9,40.3 L296.7,40.1 L296.6,39.9 L296.5,39.7 L296.4,39.5 L296.3,39.3 L296.2,39.1 L296.2,38.7 L296.5,12.1 L296.5,11.7 L296.6,11.5 L296.7,11.3 L296.8,11.1 L296.9,10.9 L297,10.7 L297.2,10.5 L297.4,10.3 L297.6,10.2 L297.8,10.1 L298,10 L298.2,9.9 L298.4,9.8 L395.5,9.8 L395.7,9.9 L395.9,10 L396.1,10.1 L396.3,10.2 L396.5,10.3 L396.7,10.5 L396.9,10.7 L397,10.9 L397.1,11.1 L397.2,11.3 L397.3,11.5 L397.4,11.7 L397.4,12.2 C397.4,14.2 397.3,16.3 397.3,18.3 L397.3,18.7 L397.2,18.9 L397.1,19.1 L397,19.3 L396.9,19.5 L396.8,19.7 L396.6,19.9 L396.4,20.1 L396.2,20.2 L396,20.3 L395.8,20.4 L395.6,20.5 L395.4,20.6 L310,20.6 L309.8,20.7 L309.6,20.8 L309.4,20.9 L309.2,21 L309,21.1 L308.8,21.3 L308.6,21.5 L308.5,21.7 L308.4,21.9 L308.3,22.1 L308.2,22.3 L308.1,22.5 L308.1,22.9 C308.1,25.8 308,28.7 308,31.7 L308,32.1 L308.1,32.3 L308.2,32.5 L308.3,32.7 L308.4,32.9 L308.5,33.1 L308.7,33.3 L308.9,33.5 L309.1,33.6 L309.3,33.7 L309.5,33.8 L309.7,33.9 L309.9,34 L318,34 L327.9,34.1 L337.2,34.3 L345.8,34.7 L353.8,35.2 L361.2,35.9 L367.9,36.8 L374,37.8 L379.5,39 L382,39.7 L384.4,40.4 L386.6,41.1 L388.7,41.9 L390.6,42.7 L392.4,43.6 L394,44.5 L395.5,45.5 L396.8,46.6 L398,47.7 L399,48.9 L399.4,49.5 L399.8,50.1 L400.1,50.7 L400.4,51.4 L400.7,52.1 L400.9,52.8 L401.1,53.5 L401.2,54.2 L401.2,54.9 L401.2,54.9 Z M280.7,58 L280.7,59.1 L280.6,59.7 L280.5,60.3 L280.4,60.9 L280.2,61.5 L280,62.1 L279.7,62.7 L279.4,63.3 L279.1,63.8 L278.7,64.3 L277.9,65.3 L277,66.2 L275.9,67.1 L274.7,68 L273.4,68.8 L272,69.6 L270.5,70.4 L268.9,71.1 L267.1,71.8 L265.2,72.5 L263.2,73.1 L259.1,74.2 L254.5,75.2 L249.5,76.1 L244.3,76.8 L238.9,77.4 L233.3,77.8 L221.9,78.1 L210.5,77.8 L199.6,76.9 L194.4,76.2 L189.5,75.4 L184.9,74.4 L180.7,73.3 L180.3,73.3 L178.4,72.7 L176.6,72.1 L174.9,71.4 L173.3,70.7 L171.8,70 L170.4,69.3 L169.2,68.5 L168.1,67.7 L167.1,66.8 L166.2,65.9 L165.4,64.9 L165.1,64.4 L165,64 L164.7,63.5 L164.5,63 L164.3,62.4 L164.1,61.8 L164,61.2 L163.9,60.6 L163.8,60 L163.8,58.6 L163.9,57.8 L164,57.1 L164.2,56.4 L164.4,55.7 L164.7,55 L165,54.3 L165.4,53.6 L166.3,52.3 L167.3,51.1 L168.5,50 L169.9,48.9 L171.4,47.9 L173.1,46.9 L174.9,46 L176.9,45.1 L179,44.3 L181.3,43.5 L183.8,42.7 L186.4,42 L186.7,41.9 L186.9,41.8 L187.1,41.6 L187.3,41.4 L187.4,41.2 L187.5,41 L187.6,40.8 L187.6,40.3 L187.5,40.1 L187.4,39.9 L187.3,39.7 L187.1,39.5 L186.9,39.3 L186.7,39.1 L186.4,39 L184.8,38.4 L183.3,37.8 L181.9,37.2 L180.6,36.5 L179.4,35.8 L178.3,35.1 L177.3,34.4 L176.4,33.7 L175.5,33 L174.7,32.2 L174,31.4 L173.4,30.6 L173.2,30.2 L173,29.8 L172.8,29.3 L172.6,28.8 L172.5,28.3 L172.4,27.8 L172.3,27.3 L172.3,25.6 L172.4,25 L172.5,24.4 L172.7,23.9 L172.9,23.4 L173.1,22.9 L173.4,22.4 L173.7,21.9 L174,21.4 L174.7,20.5 L175.5,19.6 L176.4,18.8 L177.4,18 L178.5,17.3 L179.7,16.6 L181,15.9 L182.4,15.2 L183.9,14.6 L185.5,14 L187.2,13.4 L190.9,12.3 L194.9,11.4 L199.1,10.6 L203.6,10 L208.4,9.5 L213.4,9.2 L218.7,9 L224.2,8.9 L229.5,9 L234.5,9.2 L239.2,9.5 L243.7,9.9 L247.9,10.4 L251.9,11 L255.6,11.8 L259,12.7 L260.6,13.2 L262.1,13.7 L263.5,14.2 L264.8,14.8 L266,15.4 L267.1,16 L268.2,16.6 L269.2,17.3 L270.1,18 L270.9,18.8 L271.6,19.6 L271.9,20 L272.2,20.4 L272.4,20.9 L272.6,21.4 L272.8,21.9 L273,22.4 L273.1,22.9 L273.2,23.4 L273.2,25 L273.1,25.6 L273,26.2 L272.8,26.8 L272.6,27.3 L272.4,27.8 L272.1,28.3 L271.8,28.8 L271.1,29.8 L270.2,30.7 L269.2,31.6 L268.1,32.4 L266.9,33.2 L265.5,34 L264,34.8 L262.4,35.5 L260.7,36.2 L259,37 L257,37.7 L254.9,38.4 L254.6,38.5 L254.4,38.6 L254.2,38.8 L254,39 L253.9,39.2 L253.8,39.4 L253.8,40.3 L253.9,40.6 L254,40.8 L254.1,41 L254.3,41.2 L254.5,41.4 L254.8,41.5 L255.1,41.6 L258.9,42.6 L262.4,43.6 L265.6,44.7 L268.5,45.8 L269.8,46.4 L271.1,47 L272.3,47.6 L273.4,48.2 L274.4,48.9 L275.4,49.6 L276.3,50.3 L277.1,51 L277.5,51.4 L277.9,51.8 L278.3,52.2 L278.6,52.6 L278.9,53 L279.2,53.4 L279.5,53.9 L279.7,54.4 L279.9,54.9 L280.1,55.4 L280.3,55.9 L280.4,56.4 L280.5,56.9 L280.6,57.4 L280.7,58 L280.7,58 Z M254.5,60.9 L254.5,60.3 L254.4,60 L254.3,59.7 L254.1,59.4 L253.9,59 L253.6,58.6 L253.3,58.2 L252.9,57.8 L252.4,57.4 L251.9,57 L251.3,56.6 L250.7,56.2 L250,55.8 L249.2,55.4 L248.4,55 L246.4,54.2 L244,53.4 L241.2,52.6 L238,51.7 L234.4,50.8 L230.4,49.9 L221.1,47.9 C215.9,46.9 210.7,45.8 205.6,44.8 L204,45.4 L202.5,46 L201.1,46.6 L199.8,47.2 L198.6,47.8 L197.5,48.4 L196.5,49 L195.5,49.7 L194.8,50.2 L194.2,50.7 L193.6,51.2 L193.1,51.7 L192.6,52.2 L192.2,52.7 L191.8,53.2 L191.5,53.7 L191.2,54.2 L190.9,54.7 L190.7,55.2 L190.5,55.7 L190.4,56.2 L190.3,56.8 L190.2,57.4 L190.2,58.7 L190.3,59.4 L190.4,60 L190.6,60.6 L190.9,61.2 L191.2,61.8 L191.6,62.4 L192,63 L192.5,63.6 L193.1,64.2 L193.8,64.8 L194.5,65.3 L195.3,65.8 L196.2,66.3 L197.2,66.8 L198.3,67.3 L200.6,68.2 L203.1,69 L205.8,69.7 L208.7,70.3 L211.8,70.7 L215.2,71 L218.8,71.2 L222.6,71.3 L226.1,71.2 L229.5,71 L232.7,70.7 L235.7,70.3 L238.6,69.8 L241.3,69.2 L243.9,68.5 L246.3,67.7 L247.4,67.3 L248.4,66.8 L249.4,66.3 L250.3,65.8 L251.1,65.3 L251.8,64.8 L252.4,64.3 L252.9,63.8 L253.4,63.3 L253.8,62.8 L254.1,62.3 L254.3,61.9 L254.5,61.5 L254.6,61.1 L254.7,60.7 L254.5,60.9 L254.5,60.9 Z M250.1,24.5 L250.1,24.1 L250,23.7 L249.9,23.3 L249.8,22.9 L249.6,22.5 L249.4,22.1 L249.1,21.7 L248.7,21.3 L248.3,20.9 L247.8,20.5 L247.2,20.1 L246.6,19.7 L245.9,19.3 L245.1,18.9 L244.2,18.5 L243.3,18.1 L241.3,17.4 L239.1,16.8 L236.7,16.3 L234.2,15.9 L231.5,15.6 L228.6,15.4 L225.5,15.3 L219.4,15.3 L216.6,15.4 L214,15.6 L211.5,15.9 L209.1,16.3 L206.8,16.8 L204.6,17.4 L202.6,18.1 L201.6,18.5 L200.7,18.9 L199.9,19.3 L199.2,19.7 L198.5,20.1 L197.9,20.5 L197.4,20.9 L196.9,21.3 L196.5,21.7 L196.2,22.1 L196,22.4 L195.8,22.7 L195.7,23 L195.6,23.3 L195.5,23.6 L195.5,24.5 L195.6,24.8 L195.7,25.1 L195.9,25.4 L196.1,25.7 L196.4,26 L196.7,26.4 L197.1,26.8 L197.6,27.2 L198.1,27.6 L198.7,28 L199.4,28.4 L200.1,28.8 L200.9,29.2 L201.8,29.6 L203.8,30.3 L206.3,31.1 L209.3,32 L212.8,32.9 L221.3,34.9 L231.7,37.1 L233.3,36.6 L234.9,36.1 L236.4,35.6 L237.8,35.1 L239.1,34.6 L240.3,34.1 L241.5,33.6 L242.6,33.1 L243.5,32.6 L244.4,32.1 L245.2,31.6 L245.9,31.1 L246.6,30.6 L247.2,30.1 L247.7,29.6 L248.2,29.1 L248.6,28.6 L248.9,28.1 L249.2,27.6 L249.4,27.1 L249.6,26.6 L249.7,26.1 L249.8,25.6 L250.1,24.5 L250.1,24.5 Z" id="Shape" fill="#BBBDBF"></path>
            <path d="M4.5,74.6 L4.2,74.6 L3.9,74.5 L3.7,74.4 L3.5,74.3 L3.3,74.2 L3,74 L2.8,73.8 L2.7,73.6 L2.6,73.5 L2.5,73.3 L2.4,73 L2.4,72.9 L2.3,72.7 L2.3,70 L2.4,69.7 L2.5,69.5 L2.6,69.4 L2.8,69.1 L2.9,69 L3.1,68.8 L3.3,68.6 L3.5,68.5 L3.6,68.4 L3.9,68.3 L4.2,68.2 L4.5,68.1 L4.7,68.1 L6.9,68 L8.1,67.9 L9.3,67.8 L10.6,67.6 L11.9,67.4 L13.2,67.1 L14.5,66.8 L15.3,66.5 L16.1,66.2 L16.9,65.9 L17.6,65.6 L18.2,65.3 L18.8,65 L19.3,64.7 L19.7,64.4 L20,64.1 L20.2,63.9 L20.4,63.6 L20.5,63.4 L20.6,63.2 L20.7,62.9 L20.8,62.6 L20.9,62.2 C21.9,53.7 22.1,45 22.1,37.6 L22.1,37 L22.2,36.8 L22.3,36.5 L22.5,36.2 L22.6,36 L22.7,35.9 L22.8,35.8 L23,35.7 L23.2,35.6 L23.3,35.5 L23.6,35.4 L23.8,35.3 L84.1,35.3 L88.6,35.2 L93,35 L97.4,34.6 L99.6,34.3 L101.8,33.9 L103.9,33.4 L106,32.8 L108.1,32.1 L110.1,31.2 L112.1,30 L113,29.4 L113.9,28.7 L114.5,28.1 L115.1,27.5 L115.7,26.9 L116.2,26.3 L116.6,25.7 L116.9,25.1 L117.2,24.4 L117.3,24.1 L117.4,23.8 L117.5,23.5 L117.5,22.3 L117,21.8 L116.9,21.5 L116.8,21.1 L116.7,20.7 L116.5,20.3 L116.1,19.5 L115.6,18.7 L115,18 L114.3,17.3 L113.6,16.6 L112.8,16 L111.9,15.3 L110.9,14.7 L109.9,14.1 L108.8,13.5 L107.7,12.9 L106.5,12.4 L105.3,11.9 L104,11.4 L102.8,11 L101.5,10.6 L100.2,10.3 L98.9,10 L97.6,9.7 L95.3,9.3 L92.9,9 L90.5,8.8 L88.1,8.7 L83.3,8.6 L10.7,8.6 L10.4,8.5 L10.1,8.4 L9.9,8.3 C9.2,7.9 7.5,7.1 3.3,6.5 L3.2,6.5 L2.9,6.4 L2.7,6.3 L2.5,6.2 L2.4,6.1 L2.2,5.9 L2.1,5.8 L1.9,5.6 L1.7,5.4 L1.6,5.2 L1.5,4.9 L1.4,4.7 L1.4,3.2 L1.5,3 L1.6,2.8 L1.8,2.6 L1.9,2.5 L2.1,2.3 L2.2,2.2 L2.4,2 L2.5,1.9 L2.7,1.8 L3.3,1.8 L67.7,1.6 L80.9,1.6 L87.5,1.7 L94.1,1.9 L100.7,2.3 L107.3,2.9 L114,4 L120.6,5.2 L123.1,5.8 L125.5,6.4 L127.9,7.1 L130.2,7.8 L132.4,8.6 L134.5,9.4 L136.5,10.3 L138.4,11.3 L140.1,12.3 L141.7,13.4 L143.1,14.6 L144.4,15.9 L145.4,17.2 L146.2,18.6 L146.8,20 L147,20.7 L147.2,21.4 L147.3,22.2 L147.3,23.8 L147.2,24.6 L147,25.4 L146.8,26.2 L146.5,27 L146.1,27.8 L145.7,28.5 L145.2,29.2 L144.7,29.9 L144.1,30.6 L142.8,31.8 L141.3,33 L139.6,34.1 L137.8,35.1 L135.8,36.1 L133.7,37 L131.4,37.8 L129,38.6 L126.5,39.3 L123.9,39.9 L115.3,41.7 L106.7,43 L98.1,43.9 L89.5,44.4 L80.9,44.7 L72.3,44.8 L54.6,44.8 L54.3,44.9 L54.1,45 L53.8,45.1 L53.6,45.2 L53.5,45.3 L53.3,45.5 L53.2,45.6 L53,45.9 L52.9,46.1 L52.8,46.4 L52.7,46.7 L52.7,47.6 C52.8,53.4 53,58.2 53.4,62.5 L53.5,63.1 L53.6,63.3 L53.7,63.4 L53.8,63.5 L53.9,63.6 L54.1,63.8 L54.3,64 L54.6,64.2 L54.9,64.4 L55.3,64.6 L55.7,64.8 L56.2,65 L56.8,65.2 L57.4,65.4 L58.1,65.6 L58.8,65.8 L59.6,66 L60.4,66.2 L61.2,66.4 L62.1,66.6 L63.9,66.9 L65.8,67.2 L67.7,67.4 L69.5,67.6 L71.3,67.8 L73,67.9 L74.6,68 L77.5,68.1 L77.7,68.1 L78.1,68.2 L78.3,68.3 L78.5,68.4 L78.8,68.6 L79,68.8 L79.2,69 L79.3,69.2 L79.5,69.5 L79.5,69.6 L79.6,69.8 L79.7,70 L79.7,72.7 L79.6,72.9 L79.5,73.1 L79.4,73.3 L79.2,73.6 L79,73.8 L78.9,73.9 L78.7,74.1 L78.5,74.2 L78.3,74.3 L78.1,74.4 L77.8,74.5 L4.5,74.6 L4.5,74.6 Z" id="Shape" fill="#EC1C24"></path>
            <path d="M67.8,3 L81,3 L87.6,3.1 L94.2,3.3 L100.8,3.7 L107.4,4.3 L114,5.2 L120.5,6.4 L122.9,6.9 L125.3,7.5 L127.6,8.2 L129.9,8.9 L132.1,9.7 L134.1,10.5 L136,11.4 L137.8,12.3 L139.4,13.3 L140.9,14.4 L142.2,15.5 L143.3,16.6 L144.2,17.8 L144.9,19 L145.4,20.2 L145.6,20.8 L145.7,21.4 L145.8,22.1 L145.8,23.5 L145.7,24.2 L145.6,24.9 L145.4,25.6 L145.1,26.3 L144.8,26.9 L144.4,27.5 L144,28.1 L143.5,28.7 L143,29.3 L141.8,30.5 L140.4,31.6 L138.8,32.6 L137,33.6 L135.1,34.5 L133,35.4 L130.8,36.2 L128.5,36.9 L126.1,37.6 L123.6,38.2 L115.1,40 L106.6,41.3 L98.1,42.1 L89.6,42.6 L81.1,42.9 L72.6,43 L55.1,43 L54.7,43.1 L54.3,43.2 L53.9,43.3 L53.6,43.5 L53.3,43.7 L53,43.9 L52.7,44.2 L52.4,44.5 L52.2,44.8 L52,45.1 L51.8,45.5 L51.7,45.9 L51.6,46.3 L51.5,46.7 L51.5,47.1 C51.6,52.2 51.7,57.2 52.2,62.2 L52.3,62.8 L52.4,63.1 L52.5,63.4 L52.6,63.7 L52.8,64 L53,64.3 L53.2,64.6 L53.5,64.9 L53.9,65.2 L54.3,65.5 L54.8,65.8 L55.3,66.1 L55.9,66.3 L56.5,66.5 L57.2,66.7 L57.9,66.9 L58.7,67.1 L59.5,67.3 L60.3,67.5 L61.1,67.7 L62,67.9 L63.8,68.2 L65.7,68.5 L67.6,68.7 L69.5,68.9 L71.3,69.1 L73,69.2 L74.6,69.3 L77.5,69.4 L78.1,69.4 L78.2,69.5 L78.3,69.6 L78.4,69.7 L78.4,72.8 L78.3,72.9 L78.2,73 L78.1,73.1 L4.3,73.1 L4.2,73 L4,73 L3.9,72.9 L3.8,72.8 L3.8,72.2 L3.8,69.9 L3.9,69.8 L4,69.7 L4.1,69.6 L4.2,69.5 L4.8,69.5 L7,69.4 L8.2,69.3 L9.4,69.2 L10.7,69 L12,68.8 L13.4,68.5 L14.7,68.2 L15.6,67.9 L16.5,67.6 L17.3,67.3 L18,67 L18.7,66.6 L19.4,66.2 L20,65.8 L20.5,65.4 L20.9,65 L21.3,64.6 L21.6,64.2 L21.8,63.8 L22,63.4 L22.1,63 L22.2,62.6 L22.3,62.2 C23.3,54 23.5,45.7 23.5,37.4 L23.5,36.7 L23.6,36.6 L23.7,36.5 L84.2,36.5 L88.7,36.4 L93.2,36.2 L97.6,35.8 L99.8,35.5 L102,35.1 L104.2,34.6 L106.4,34 L108.6,33.2 L110.7,32.2 L112.8,31 L113.8,30.3 L114.8,29.5 L115.5,28.9 L116.1,28.2 L116.7,27.5 L117.2,26.8 L117.7,26.1 L118.1,25.4 L118.4,24.6 L118.5,24.2 L118.6,23.8 L118.7,23.4 L118.7,21.8 L118.6,21.4 L118.5,21 L118.4,20.6 L118,20.3 L117.8,19.9 L117.3,19 L116.7,18.1 L116,17.2 L115.3,16.4 L114.5,15.6 L113.6,14.9 L112.7,14.2 L111.7,13.5 L110.6,12.8 L109.5,12.2 L108.3,11.6 L107.1,11.1 L105.8,10.6 L104.5,10.1 L103.2,9.7 L101.9,9.3 L100.5,9 L99.2,8.7 L97.9,8.4 L95.5,8 L93,7.8 L90.6,7.6 L88.2,7.5 L83.3,7.4 L10.7,7.4 L10.6,7.3 L10.5,7.2 C9.2,6.4 6.8,5.7 3.4,5.2 L3.3,5.2 L3.2,5.1 L3.1,5 L3,4.9 L2.9,4.8 L2.8,4.7 L2.8,4.5 L2.8,3.7 L2.9,3.6 L3,3.5 L3.1,3.4 L3.2,3.3 L3.4,3.3 C24.8,3.1 46.3,3 67.8,3 L67.8,3 Z M67.8,0.2 L35.6,0.3 L3.3,0.4 L2.8,0.4 L2.6,0.5 L2.5,0.5 L2.3,0.6 L2.1,0.7 L2,0.8 L1.7,1 L1.4,1.2 L1.3,1.3 L1.1,1.4 L1,1.5 L0.9,1.6 L0.7,1.9 L0.5,2.2 L0.4,2.3 L0.3,2.5 L0.2,2.7 L0.2,2.8 L0.1,3 L0.1,5 L0.2,5.4 L0.4,5.7 L0.5,5.8 L0.6,5.9 L0.7,6 L0.8,6.1 L0.9,6.3 L1,6.4 L1.1,6.5 L1.3,6.7 L1.5,6.9 L1.6,7 L1.8,7.1 L2,7.2 L2.1,7.3 L2.3,7.4 L3,7.4 C7.2,7.9 8.7,8.7 9,9 L9.2,9 L9.3,9.1 L9.4,9.2 L9.5,9.3 L9.6,9.4 L83.4,9.4 L88.2,9.5 L90.6,9.6 L92.9,9.8 L95.2,10.1 L97.5,10.4 L98.8,10.7 L100,11 L101.2,11.3 L102.4,11.7 L103.6,12.1 L104.8,12.5 L106,13 L107.1,13.5 L108.2,14 L109.2,14.6 L110.2,15.2 L111.1,15.8 L111.9,16.4 L112.7,17 L113.4,17.6 L114,19 L114.5,19.7 L114.9,20.4 L115.3,21.1 L115.4,21.4 L115.5,21.7 L115.6,22 L115.7,22.2 L115.7,23.7 L115.6,23.9 L115.4,24.4 L115.1,25 L114.8,25.5 L114.4,26.1 L113.9,26.7 L113.4,27.3 L112.8,27.8 L112,28.5 L111.1,29 L109.3,30.1 L107.4,31 L105.4,31.7 L103.4,32.3 L101.3,32.8 L99.2,33 L97.1,33.3 L92.8,33.7 L88.4,33.9 L83.9,34 L23,34 L22.7,34.1 L22.5,34.2 L21.8,34.2 L21.6,34.3 L21.5,34.4 L21.4,34.5 L21.2,34.6 L21.1,34.8 L21,34.9 L21,36 L20.9,36.2 L20.9,36.3 L20.8,36.4 L20.7,36.6 L20.7,37.7 C20.7,45.1 20.5,53.7 19.5,62.2 L19.5,62.9 L19.4,63 L19.2,63.2 L19,63.4 L18.7,63.6 L18.3,63.9 L17.8,64.2 L17.2,64.5 L16.5,64.8 L15.8,65.1 L15,65.4 L14.2,65.6 L13,65.9 L11.8,66.2 L10.6,66.4 L9.4,66.6 L8.2,66.7 L7.1,66.8 L4.9,66.9 L4.2,66.9 L4,67 L3.6,67 L3.4,67.1 L3.2,67.2 L3.1,67.2 L3,67.3 L2.8,67.4 L2.6,67.6 L2.5,67.7 L2.4,67.8 L2.3,67.9 L2.2,68 L2.1,68.1 L2,68.2 L1.9,68.4 L1.8,68.6 L1.8,68.8 L1.7,69 L1.6,69.2 L1.6,73.2 L1.7,73.4 L1.7,73.9 L1.8,74.1 L1.9,74.3 L2,74.4 L2.1,74.5 L2.2,74.6 L2.3,74.7 L2.4,74.8 L2.5,74.9 L2.6,75 L2.7,75.1 L2.8,75.2 L2.9,75.3 L3,75.3 L3.1,75.4 L3.2,75.5 L3.9,75.5 L4.1,75.6 L77.9,75.6 L78.2,75.5 L78.6,75.5 L78.8,75.4 L79.2,75.4 L79.3,75.3 L79.4,75.2 L79.5,75.2 L79.7,75.1 L79.9,75 L80,74.9 L80.1,74.8 L80.2,74.7 L80.3,74.6 L80.4,74.5 L80.6,74.3 L80.7,74.1 L80.8,73.9 L80.9,73.7 L80.9,73.3 L81,73.1 L81,69.1 L80.9,68.9 L80.8,68.7 L80.8,68 L80.7,67.8 L80.6,67.7 L80.5,67.6 L80.4,67.5 L80.3,67.4 L80.2,67.3 L80.1,67.2 L79.9,67.1 L79.8,67 L79.4,67 L79.2,66.8 L78.9,66.7 L78.8,66.7 L78.6,66.6 L77.5,66.6 L74.6,66.5 L73,66.4 L71.3,66.3 L69.6,66.1 L67.8,65.9 L66,65.7 L64.1,65.4 L62.4,65.1 L61.6,64.9 L60.8,64.7 L60.1,64.5 L59.3,64.3 L58.6,64.1 L57.9,63.9 L57.3,63.7 L56.8,63.5 L56.3,63.3 L55.9,63.1 L55.6,62.9 L55.3,62.7 L55,63 L54.9,62.9 L54.8,62.8 L54.7,62.3 C54.3,58.1 54.1,53.4 54,47.5 L54,46.9 L54.1,46.7 L54.2,46.6 L54.3,46.5 L54.4,46.4 L54.5,46.3 L54.6,46.2 L54.7,46.1 L54.8,46 L72.4,46 L81,45.9 L89.6,45.6 L98.1,45.1 L98.3,45.1 L106.8,44.3 L107,44.3 L115.5,43 L115.7,43 L124.2,41.2 L124.4,41.2 L126.9,40.6 L129.3,39.9 L131.6,39.2 L133.8,38.4 L134,38.4 L136.1,37.5 L136.3,37.5 L138.2,36.6 L138.4,36.6 L140.2,35.6 L140.3,35.6 L140.4,35.5 L142,34.5 L142.1,34.4 L142.2,34.3 L143.6,33.2 L143.7,33.1 L143.8,33 L145,31.8 L145.1,31.7 L145.2,31.6 L145.7,31 L145.8,30.9 L145.8,30.8 L146.3,30.2 L146.4,30.1 L146.5,30 L146.9,29.4 L146.9,29.2 L147.3,28.6 L147.3,28.4 L147.6,27.8 L147.7,27.7 L147.7,27.6 L148,26.9 L148,26.7 L148.2,26 L148.2,25.8 L148.3,25.1 L148.3,24.9 L148.4,24.2 L148.4,22.2 L148.3,21.5 L148.3,21.3 L148.2,20.7 L148.2,20.5 L148,19.9 L148,19.8 L147.9,19.7 L147.4,18.5 L147.3,18.3 L147.2,18.1 L146.5,16.9 L146.4,16.8 L146.3,16.7 L145.4,15.5 L145.3,15.4 L145.2,15.3 L144.1,14.2 L144,14.1 L143.9,14 L142.6,12.9 L142.5,12.8 L142.4,12.7 L140.9,11.6 L140.8,11.5 L140.7,11.4 L139.1,10.4 L138.9,10.4 L137.1,9.5 L136.9,9.5 L135,8.6 L134.8,8.6 L132.8,7.8 L130.6,7 L130.4,7 L128.1,6.3 L125.9,5 L123.5,4.4 L121,3.8 L114.5,2.6 L114.3,2.6 L107.7,1.7 L107.5,1.7 L100.9,1 L94.3,0.6 L87.7,0.4 L81,0.2 L67.8,0.2 L67.8,0.2 Z" id="Shape" fill="#D0D2D3"></path>
        </g>
    </g>
</svg>