<?xml version="1.0" encoding="UTF-8" standalone="no"?>
<svg width="254px" height="35px" viewBox="0 0 254 35" version="1.1" xmlns="http://www.w3.org/2000/svg" xmlns:xlink="http://www.w3.org/1999/xlink">
    <!-- Generator: Sketch 39.1 (31720) - http://www.bohemiancoding.com/sketch -->
    <title>p85d</title>
    <desc>Created with Sketch.</desc>
    <defs></defs>
    <g id="Page-1" stroke="none" stroke-width="1" fill="none" fill-rule="evenodd">
        <g id="p85d">
            <path d="M2.104,33.7 C1.584,33.682 1.057,33.3 1.057,32.628 L1.057,31.9 C1.079,31.362 1.467,30.815 2.143,30.815 C3.305,30.815 6.779,30.513 8.867,29.135 C8.883,29.122 9.321,28.815 9.397,28.215 C9.497,27.448 9.983,23.305 9.955,17.081 C9.945,16.931 9.947,16.558 10.207,16.261 C10.395,16.046 10.67,15.927 10.982,15.927 L38.024,15.927 C38.05,15.927 38.297,15.935 38.724,15.935 C41.121,15.935 53.086,15.65 53.086,10.025 C53.086,3.87 36.87,3.8 36.18,3.8 L5.243,3.803 C5.216,3.805 5.181,3.807 5.14,3.807 C4.97,3.807 4.707,3.773 4.41,3.609 L4.354,3.576 C4.07,3.416 3.404,3.04 1.534,2.808 C1.086,2.76 0.62,2.427 0.62,1.883 L0.62,1.607 C0.617,1.481 0.637,1.221 0.84,0.995 C0.963,0.862 1.184,0.7 1.553,0.7 L36.617,0.62 C38.732,0.62 46.167,0.712 53.049,1.9 C62.103,3.465 66.694,6.296 66.694,10.315 C66.694,19.165 43.867,20.189 26.697,20.189 L24.927,20.187 C24.677,20.195 23.829,20.322 23.853,21.603 C23.891,23.603 24.113,27.433 24.113,27.473 C24.135,27.951 24.201,28.478 24.255,28.608 C24.757,29.368 26.605,29.853 28.065,30.124 C31.571,30.774 34.893,30.811 34.925,30.812 L34.928,30.812 C35.481,30.812 36.025,31.188 36.025,31.907 C36.025,32.369 36.033,32.534 36.033,32.55 C36.038,32.617 36.055,33.037 35.753,33.364 C35.613,33.514 35.363,33.694 34.949,33.694 L2.105,33.694 L2.104,33.7 Z" id="Shape" fill="#EC1C24"></path>
            <path d="M36.617,1.24 C40.877,1.24 66.074,1.61 66.074,10.316 C66.074,19.336 38.454,19.57 26.696,19.57 L24.926,19.57 C24.926,19.57 23.196,19.582 23.234,21.617 C23.274,23.652 23.496,27.51 23.496,27.51 C23.496,27.51 23.548,28.663 23.719,28.915 C23.889,29.168 24.349,30.068 27.954,30.737 C31.56,31.407 34.924,31.435 34.924,31.435 L34.946,31.435 C35.042,31.435 35.408,31.463 35.408,31.91 C35.408,32.424 35.418,32.588 35.418,32.588 C35.418,32.588 35.456,33.078 34.952,33.078 L2.106,33.078 C2.106,33.078 1.68,33.062 1.68,32.626 L1.68,31.9 C1.68,31.9 1.7,31.434 2.145,31.434 C2.59,31.434 6.671,31.327 9.211,29.651 C9.211,29.651 9.901,29.206 10.016,28.295 C10.132,27.385 10.606,23.235 10.578,17.052 C10.578,17.052 10.51,16.549 10.985,16.549 L38.027,16.549 C38.027,16.549 38.282,16.557 38.727,16.557 C41.767,16.557 53.709,16.167 53.709,10.027 C53.709,3.357 37.841,3.183 36.183,3.183 C36.093,3.183 36.043,3.185 36.043,3.185 L5.207,3.185 C5.207,3.185 5.183,3.189 5.141,3.189 C5.057,3.189 4.901,3.172 4.711,3.069 C4.431,2.914 3.724,2.459 1.611,2.197 C1.611,2.197 1.243,2.157 1.243,1.887 L1.243,1.597 C1.243,1.597 1.213,1.325 1.553,1.325 L36.009,1.247 C36.009,1.247 36.225,1.244 36.619,1.244 L36.617,1.24 Z M36.619,0.004 C36.213,0.004 35.992,0.007 35.992,0.007 L1.55,0.08 C1.085,0.08 0.67,0.26 0.38,0.58 C0.124,0.865 -0.014,1.25 2.22044605e-15,1.627 L2.22044605e-15,1.884 C2.22044605e-15,2.688 0.623,3.338 1.48,3.428 C3.206,3.642 3.82,3.988 4.05,4.118 L4.112,4.153 C4.524,4.38 4.898,4.428 5.14,4.428 C5.185,4.428 5.227,4.426 5.264,4.424 L36.18,4.424 C42.725,4.424 52.465,5.914 52.465,10.026 C52.465,11.999 50.642,13.468 47.045,14.393 C43.802,15.227 40.145,15.317 38.722,15.317 C38.312,15.317 38.074,15.31 38.062,15.309 L10.982,15.309 C10.488,15.309 10.047,15.501 9.74,15.853 C9.345,16.305 9.318,16.84 9.335,17.105 C9.362,23.28 8.88,27.378 8.783,28.139 C8.746,28.429 8.547,28.599 8.51,28.629 C6.538,29.915 3.25,30.196 2.143,30.196 C1.08,30.196 0.473,31.048 0.438,31.85 L0.438,32.629 C0.438,33.691 1.274,34.293 2.062,34.319 L2.082,34.321 L34.952,34.321 C35.449,34.321 35.896,34.133 36.212,33.791 C36.677,33.288 36.668,32.671 36.654,32.493 C36.654,32.493 36.648,32.329 36.648,31.913 C36.648,30.933 35.916,30.196 34.946,30.196 L34.896,30.196 C34.511,30.19 31.424,30.121 28.181,29.519 C26.136,29.139 25.121,28.669 24.826,28.329 C24.788,28.134 24.749,27.734 24.736,27.455 C24.734,27.402 24.514,23.583 24.476,21.595 C24.466,21.075 24.611,20.84 24.959,20.811 L26.697,20.811 C45.609,20.811 67.317,19.618 67.317,10.317 C67.317,5.952 62.553,2.915 53.157,1.292 C46.227,0.094 38.747,0 36.62,0 L36.619,0.004 Z" id="Shape" fill="#D0D2D3"></path>
            <path d="M115.802,18.755 C115.065,18.575 115.027,18.057 115.027,18.057 C115.027,17.295 115.66,17.217 115.66,17.217 C124.267,14.93 123.957,11.091 123.957,11.091 C123.957,5.897 114.11,3.841 100.85,3.841 C87.59,3.841 78.053,7.29 78.053,11.4 C78.053,15.51 84.403,17.478 84.403,17.478 C84.403,17.478 84.993,17.614 84.993,18.292 C84.993,18.292 84.993,18.777 84.343,18.962 C83.695,19.145 74.235,20.958 74.235,27.238 C74.235,27.238 73.867,35.321 100.579,35.321 C113.256,35.321 127.251,32.573 127.251,26.681 C127.251,20.789 116.538,18.937 115.801,18.756 L115.802,18.755 Z M100.928,6.788 C106.278,6.788 113.334,8.028 113.334,10.975 C113.334,13.922 107.751,15.975 105.154,16.597 L96.237,14.581 C96.237,14.581 88.637,12.991 88.637,10.666 C88.637,8.341 95.577,6.789 100.927,6.789 L100.928,6.788 Z M101.781,32.338 C95.541,32.338 86.158,31.096 86.158,26.638 C86.158,22.18 93.138,20.241 93.138,20.241 C107.21,22.995 115.391,24.661 115.391,27.491 C115.391,30.321 108.024,32.338 101.781,32.338 L101.781,32.338 Z M134.386,5.586 L134.386,17.062 C134.386,17.062 134.153,18.419 135.782,18.419 C137.411,18.419 147.839,18.339 156.407,19.271 C164.975,20.201 167.96,22.489 167.96,24.854 C167.96,27.219 165.48,32.802 145.396,31.6 C145.396,31.6 141.228,31.407 140.569,29.953 C140.569,29.953 140.335,29.527 140.335,28.635 C140.335,28.635 140.375,27.549 139.153,27.549 L133.88,27.549 C133.88,27.549 132.68,27.509 132.68,28.886 L132.68,32.608 C132.68,32.608 132.524,33.906 134.094,34.041 C135.664,34.176 141.958,34.661 152.012,34.611 C162.066,34.558 181.839,33.227 181.839,24.775 C181.839,19.075 172.611,15.275 140.859,15.275 C140.859,15.275 139.579,15.431 139.579,13.958 L139.579,10.34 C139.579,10.34 139.606,9.1 140.949,9.1 L178.789,9.1 C178.789,9.1 180.159,9.228 180.159,7.988 L180.159,5.43 C180.159,5.43 180.211,4.113 178.763,4.113 L135.703,4.113 C135.703,4.113 134.385,4.113 134.385,5.586 L134.386,5.586 Z" id="Shape" fill="#BBBDBF"></path>
            <path d="M220.437,34.612 C219.901,34.612 219.605,34.604 219.605,34.604 L189.187,34.604 L189.187,30.494 L189.807,30.494 C191.72,30.494 193.159,29.999 194.087,29.022 C195.311,27.73 195.237,26.027 195.235,26.01 L195.235,14.346 L207.621,14.346 L207.621,26.423 C207.621,29.6 209.886,30.003 209.981,30.017 C212.149,30.241 214.547,30.361 216.881,30.361 C223.714,30.361 239.607,29.234 239.607,18.793 C239.607,14.681 235.88,11.693 228.53,9.913 C222.442,8.437 215.53,8.216 211.95,8.216 C210.643,8.216 209.86,8.246 209.855,8.246 L190.963,8.246 L190.963,3.933 L209.676,3.933 C209.914,3.933 210.291,3.926 210.789,3.916 C211.767,3.896 213.206,3.869 214.969,3.869 C229.179,3.869 253.019,5.805 253.019,18.769 C253.019,33.849 225.877,34.613 220.436,34.613 L220.437,34.612 Z" id="Shape" fill="#EC1C24"></path>
            <path d="M214.97,4.49 C226.617,4.49 252.4,5.705 252.4,18.768 C252.4,33.308 225.497,33.992 220.436,33.992 C219.911,33.992 219.62,33.985 219.62,33.985 L189.806,33.985 L189.806,31.115 C196.126,31.115 195.854,25.979 195.854,25.979 L195.854,14.967 L207,14.967 L207,26.423 L209.882,30.629 C211.882,30.836 214.295,30.981 216.88,30.981 C227.2,30.981 240.226,28.671 240.226,18.791 C240.226,8.431 218.85,7.594 211.951,7.594 C210.624,7.594 209.831,7.624 209.831,7.624 L191.584,7.624 L191.584,4.553 L209.677,4.553 C210.385,4.553 212.307,4.49 214.971,4.49 L214.97,4.49 Z M214.971,3.248 C213.201,3.248 211.743,3.276 210.778,3.295 C210.286,3.305 209.913,3.312 209.678,3.312 L190.344,3.312 L190.344,8.87 L209.881,8.87 C209.888,8.87 210.669,8.84 211.951,8.84 C216.467,8.84 238.987,9.32 238.987,18.795 C238.987,28.677 223.527,29.745 216.882,29.745 C213.992,29.745 211.586,29.56 210.062,29.405 C209.729,29.332 208.244,28.868 208.244,26.425 L208.244,13.73 L194.617,13.73 L194.617,26.047 C194.617,26.052 194.659,27.541 193.619,28.619 C192.813,29.454 191.531,29.879 189.809,29.879 L188.569,29.879 L188.569,35.226 L219.609,35.226 C219.679,35.228 219.969,35.233 220.439,35.233 C225.984,35.233 253.643,34.439 253.643,18.768 C253.643,12.468 248.499,8.011 238.351,5.524 C232.188,4.012 224.323,3.246 214.973,3.246 L214.971,3.248 Z" id="Shape" fill="#D0D2D3"></path>
        </g>
    </g>
</svg>