<?xml version="1.0" encoding="UTF-8" standalone="no"?>
<svg width="232px" height="33px" viewBox="0 0 232 33" version="1.1" xmlns="http://www.w3.org/2000/svg" xmlns:xlink="http://www.w3.org/1999/xlink">
    <!-- Generator: Sketch 39.1 (31720) - http://www.bohemiancoding.com/sketch -->
    <title>p90d</title>
    <desc>Created with Sketch.</desc>
    <defs></defs>
    <g id="Page-1" stroke="none" stroke-width="1" fill="none" fill-rule="evenodd">
        <g id="p90d">
            <path d="M1.4,1.2 L33.4,1.1 C33.4,1.1 61.3,0.7 61.3,9.5 C61.3,18.3 32.8,18.1 23.1,18.1 C23.1,18.1 21.5,18.1 21.5,20 C21.5,21.9 21.7,25.5 21.7,25.5 C21.7,25.5 21.7,26.6 21.9,26.8 C22.1,27 22.5,27.9 25.8,28.5 C29.1,29.1 32.3,29.1 32.3,29.1 C32.3,29.1 32.7,29.1 32.7,29.5 L32.7,30.1 C32.7,30.1 32.7,30.6 32.3,30.6 L1.8,30.6 C1.8,30.6 1.4,30.6 1.4,30.2 L1.4,29.5 C1.4,29.5 1.4,29.1 1.8,29.1 C2.2,29.1 6,29 8.4,27.4 C8.4,27.4 9,27 9.1,26.1 C9.2,25.3 9.6,21.4 9.6,15.7 C9.6,15.7 9.5,15.2 10,15.2 L35.1,15.2 C35.1,15.2 49.7,15.7 49.7,9.1 C49.7,2.5 33.4,3 33.4,3 L4.8,3 C4.8,3 4.6,3 4.3,2.9 C4.1,2.7 3.5,2.3 1.5,2 C1.5,2 1.2,2 1.2,1.7 L1.2,1.5 C1.2,1.5 1.1,1.2 1.4,1.2 L1.4,1.2 Z" id="Shape" fill="#ED1C24"></path>
            <path d="M34,1.2 C38,1.2 61.3,1.5 61.3,9.6 C61.3,18 35.7,18.2 24.8,18.2 L23.2,18.2 C23.2,18.2 21.6,18.2 21.6,20.1 C21.6,22 21.8,25.6 21.8,25.6 C21.8,25.6 21.8,26.7 22,26.9 C22.2,27.1 22.6,28 25.9,28.6 C29.2,29.2 32.4,29.2 32.4,29.2 C32.5,29.2 32.8,29.2 32.8,29.6 L32.8,30.2 C32.8,30.2 32.8,30.7 32.4,30.7 L1.9,30.7 C1.9,30.7 1.5,30.7 1.5,30.3 L1.5,29.6 C1.5,29.6 1.5,29.2 1.9,29.2 C2.3,29.2 6.1,29.1 8.5,27.5 C8.5,27.5 9.1,27.1 9.2,26.2 C9.3,25.3 9.7,21.5 9.7,15.8 C9.7,15.8 9.6,15.3 10.1,15.3 L35.8,15.3 C38.6,15.3 49.7,14.9 49.7,9.2 C49.8,3.1 35.1,3 33.6,3 L4.8,3 L4.7,3 C4.6,3 4.5,3 4.3,2.9 C4.1,2.7 3.5,2.3 1.5,2 C1.5,2 1.2,2 1.2,1.7 L1.2,1.5 C1.2,1.5 1.2,1.2 1.5,1.2 L33.5,1.1 C33.4,1.2 33.6,1.2 34,1.2 L34,1.2 Z M34,0 L33.4,0 L1.4,0.1 C1,0.1 0.6,0.2 0.4,0.5 C0.1,0.8 0,1.2 0,1.5 L0,1.7 C0,2.4 0.6,3 1.4,3.1 C3,3.4 3.5,3.7 3.8,3.8 L3.9,3.8 C4.3,4 4.6,4.1 4.9,4.1 L33.7,4.1 C39.8,4.1 48.8,5.5 48.8,9.3 C48.8,14.1 37.4,14.2 36,14.2 L10.3,14.2 C9.8,14.2 9.4,14.4 9.1,14.7 C8.7,15.1 8.7,15.6 8.7,15.9 C8.7,21.6 8.3,25.4 8.2,26.1 C8.2,26.4 8,26.5 8,26.5 C6.1,27.8 3,28 2,28 C1,28 0.4,28.8 0.4,29.5 L0.4,30.2 C0.4,31.2 1.2,31.7 1.9,31.8 L32.4,31.8 C32.9,31.8 33.3,31.6 33.6,31.3 C34,30.8 34,30.3 34,30.1 L34,29.6 C34,28.7 33.3,28 32.4,28 C32,28 29.2,27.9 26.2,27.4 C24.3,27 23.4,26.6 23.1,26.3 C23.1,26.1 23,25.7 23,25.5 C23,25.5 22.8,21.9 22.8,20.1 C22.8,19.9 22.8,19.6 22.9,19.5 C23,19.4 23.2,19.4 23.2,19.4 L24.8,19.4 C42.3,19.4 62.5,18.3 62.5,9.7 C62.5,0.7 40.7,0 34,0 L34,0 Z" id="Shape" fill="#D1D3D4"></path>
            <path d="M174.2,4.2 L174.2,7.1 L191.1,7.1 C191.1,7.1 219.3,6 219.3,17.5 C219.3,29 200.4,29.4 191.1,28.5 C191.1,28.5 188.4,28.1 188.4,24.6 L188.4,14 L178.1,14 L178.1,24.2 C178.1,24.2 178.4,29 172.5,29 L172.5,31.7 L200.2,31.7 C200.2,31.7 230.6,32.5 230.6,17.6 C230.6,2.7 194.5,4.2 191,4.2 L174.2,4.2 L174.2,4.2 Z" id="Shape" fill="#ED1C24"></path>
            <path d="M195.9,4.2 C206.7,4.2 230.6,5.3 230.6,17.4 C230.6,30.9 205.6,31.5 200.9,31.5 L172.4,31.5 L172.4,28.8 C178.3,28.8 178,24 178,24 L178,13.9 L188.3,13.9 L188.3,24.5 C188.3,28 191,28.4 191,28.4 C192.9,28.6 195.1,28.7 197.5,28.7 C207.1,28.7 219.2,26.6 219.2,17.4 C219.2,7.8 199.4,7 193,7 L174.1,7 L174.1,4.2 L195.9,4.2 L195.9,4.2 Z M195.9,3 L173,3 L173,8.3 L193.1,8.3 C197.3,8.3 218.2,8.7 218.2,17.5 C218.2,26.7 203.9,27.7 197.7,27.7 C195,27.7 192.8,27.5 191.4,27.4 C191.1,27.3 189.7,26.9 189.7,24.6 L189.7,12.7 L177,12.7 L177,24.1 C177,24.1 177,25.5 176.1,26.5 C175.4,27.3 174.2,27.7 172.6,27.7 L171.4,27.7 L171.4,32.8 L201.1,32.8 C206.2,32.8 231.9,32.1 231.9,17.5 C231.8,10.8 225.6,3 195.9,3 L195.9,3 Z" id="Shape" fill="#D1D3D4"></path>
            <path d="M103.9,3.8 L84.7,3.8 C78.5,3.8 71.4,7.1 71.4,12.8 C71.4,19.4 78.6,21.8 85.1,21.8 L106.3,21.8 C106.8,21.8 107.2,22.2 107.1,22.7 C106.6,25.9 103.1,26.9 98.6,26.9 L76.9,26.9 C76,26.9 75.7,27.6 75.6,28.4 L75.3,30.6 C75.3,31.3 75.8,31.8 76.5,31.8 L99.7,31.8 C106.3,31.8 115.8,28.5 116.6,17.2 C117,10.4 112.8,3.8 103.9,3.8 L103.9,3.8 Z M100.1,18.3 L88.2,18.3 C84.2,18.3 79.8,16.8 79.8,12.8 C79.8,9.3 83.8,7.3 87.6,7.3 L100.5,7.3 C104.7,7.3 107.1,9.8 107.5,12.8 C108.2,17.8 106,18.3 100.1,18.3 L100.1,18.3 Z M149.8,3.9 L137.5,3.9 C137.5,3.9 121.6,2.9 120.1,14 L119.6,19.8 C119.6,19.8 118.8,27.1 124.9,30 C124.9,30 128.2,31.9 134.8,31.9 L148.7,31.9 C148.7,31.9 162.5,32.2 163.2,21.3 L163.6,14.4 C163.5,14.3 163.8,3.9 149.8,3.9 L149.8,3.9 Z M154.1,21.6 C153.5,29.1 145.5,28.7 145.5,28.7 C145.5,28.7 143.7,28.9 135.3,28.6 C127.1,28.3 128.4,18.5 128.4,18.5 L128.7,15.5 C129.5,6.5 137.4,7.2 137.4,7.2 C137.4,7.2 136.6,7.1 146.3,7.1 C156,7.1 154.7,14 154.1,21.6 L154.1,21.6 Z" id="Shape" fill="#BCBEC0"></path>
        </g>
    </g>
</svg>