<?xml version="1.0" encoding="UTF-8" standalone="no"?>
<svg width="100px" height="13px" viewBox="0 0 100 13" version="1.1" xmlns="http://www.w3.org/2000/svg" xmlns:xlink="http://www.w3.org/1999/xlink">
    <!-- Generator: Sketch 39.1 (31720) - http://www.bohemiancoding.com/sketch -->
    <title>tesla.svg</title>
    <desc>Created with Sketch.</desc>
    <defs></defs>
    <g id="Page-1" stroke="none" stroke-width="1" fill="none" fill-rule="evenodd">
        <g id="tesla.svg" fill="#CCCCCC">
            <path d="M0,0 C0.3,1.1 1.3,2.3 2.6,2.6 L6.7,2.6 L6.9,2.7 L6.9,13 L9.4,13 L9.4,2.7 L9.6,2.6 L13.7,2.6 C15.1,2.2 16,1.1 16.3,0 L16.3,0 L0,0 L0,0 L0,0 Z" id="Shape"></path>
            <path d="M77.8,13 C79.1,12.5 79.8,11.5 80,10.4 L68.7,10.4 L68.7,-0.1 L66.2,-0.1 L66.2,12.9 L77.8,12.9 L77.8,13 Z" id="Shape"></path>
            <path d="M47.3,2.6 L56.3,2.6 C57.6,2.2 58.8,1.2 59,0 L44.8,0 L44.8,7.7 L56.4,7.7 L56.4,10.4 L47.3,10.4 C45.9,10.8 44.7,11.8 44.1,13 L44.8,13 L59,13 L59,5.2 L47.3,5.2 L47.3,2.6 L47.3,2.6 Z" id="Shape"></path>
            <polygon id="Shape" points="85.4 5.2 85.4 13 88 13 88 7.8 97.1 7.8 97.1 13 99.7 13 99.7 5.2"></polygon>
            <path d="M25.2,2.6 L34.9,2.6 C36.2,2.3 37.3,1.1 37.5,-2.22044605e-16 L22.5,-2.22044605e-16 C22.9,1.2 23.9,2.3 25.2,2.6" id="Shape"></path>
            <path d="M25.2,7.8 L34.9,7.8 C36.2,7.5 37.3,6.3 37.5,5.2 L22.5,5.2 C22.9,6.3 23.9,7.5 25.2,7.8" id="Shape"></path>
            <path d="M25.2,13 L34.9,13 C36.2,12.7 37.3,11.5 37.5,10.4 L22.5,10.4 C22.9,11.6 23.9,12.8 25.2,13" id="Shape"></path>
            <path d="M87.7,2.6 L97.4,2.6 C98.7,2.3 99.8,1.1 100,-2.22044605e-16 L85,-2.22044605e-16 C85.3,1.2 86.3,2.4 87.7,2.6" id="Shape"></path>
        </g>
    </g>
</svg>