<svg id="Layer_1" data-name="Layer 1" xmlns="http://www.w3.org/2000/svg" viewBox="0 0 253.58 252.5"><title>Tesla</title><g id="T" fill="#191919"><path d="M126.81,252.5L162.28,53c33.82,0,44.48,3.71,46,18.84,0,0,22.68-8.46,34.13-25.64-44.65-20.69-89.51-21.62-89.51-21.62L126.75,56.45h0.06L100.63,24.56s-44.86.93-89.5,21.62C22.56,63.36,45.25,71.82,45.25,71.82,46.8,56.69,57.46,53,91,53L126.81,252.5"/><path d="M126.79,15.36a292.29,292.29,0,0,1,119.69,24c5.65-10.17,7.11-14.67,7.11-14.67A347.1,347.1,0,0,0,126.79,0,347.06,347.06,0,0,0,0,24.71,122.67,122.67,0,0,0,7.1,39.37a292.27,292.27,0,0,1,119.69-24h0"/></g></svg>